<svg width="389" height="135" viewBox="0 0 389 135" fill="none" xmlns="http://www.w3.org/2000/svg">
<path d="M212.61 37.58C212.402 37.711 212.058 37.6187 211.58 37.3409C211.103 37.063 210.491 36.5999 209.723 36.0219C208.955 35.4439 208.03 34.7512 206.929 34.0406C205.829 33.3299 204.553 32.602 203.118 31.9725C201.718 31.3577 200.159 30.8342 198.495 30.4808C196.832 30.1273 195.068 29.9447 193.296 29.9845C191.206 30.0285 189.084 30.3914 187.091 31.0173C185.1 31.6431 183.243 32.5296 181.631 33.5588C180.061 34.5575 178.704 35.6973 177.569 36.8085C176.433 37.9197 175.516 39.0009 174.771 39.9169C174.027 40.8328 173.45 41.5834 172.986 42.0741C172.521 42.5648 172.164 42.7953 171.902 42.7109C171.64 42.6264 171.472 42.2255 171.457 41.5057C171.443 40.7858 171.581 39.7453 171.99 38.4598C172.398 37.1743 173.079 35.6437 174.136 34.0384C175.192 32.4332 176.629 30.7565 178.467 29.2512C180.357 27.7063 182.654 26.3687 185.191 25.449C187.73 24.5292 190.503 24.0321 193.249 24.0375C195.57 24.0445 197.844 24.4052 199.926 25.0362C202.009 25.6671 203.898 26.566 205.51 27.5967C207.162 28.6551 208.512 29.8411 209.564 30.9903C210.616 32.1395 211.374 33.2499 211.892 34.2018C212.407 35.1536 212.686 35.9467 212.788 36.5204C212.884 37.0941 212.815 37.4492 212.61 37.5802L212.61 37.58Z" fill="#4B4343" fill-opacity="0.9999"/>
<path d="M172.54 39.2C172.402 39.4361 171.954 39.4845 171.201 39.3973C170.447 39.3102 169.391 39.0898 168.055 38.8555C166.718 38.6211 165.098 38.3755 163.255 38.2684C161.41 38.1612 159.34 38.1954 157.174 38.5122C154.972 38.832 152.657 39.4508 150.405 40.3992C148.153 41.3476 145.969 42.6244 144.038 44.1683C142.291 45.5607 140.732 47.1766 139.422 48.8851C138.112 50.5935 137.051 52.3918 136.234 54.1473C135.402 55.9303 134.816 57.6769 134.392 59.2599C133.968 60.8429 133.703 62.2625 133.499 63.4391C133.295 64.6156 133.15 65.5505 132.982 66.1969C132.814 66.8433 132.619 67.2023 132.371 67.241C132.123 67.2797 131.818 66.9976 131.498 66.3735C131.178 65.7493 130.844 64.7811 130.606 63.4798C130.367 62.1785 130.227 60.5423 130.329 58.6451C130.425 56.7479 130.78 54.5899 131.509 52.3258C132.227 50.0979 133.313 47.784 134.787 45.5841C136.259 43.3841 138.119 41.3023 140.283 39.5298C142.683 37.5664 145.431 36.0109 148.264 34.9587C151.094 33.9065 154.001 33.3578 156.716 33.2488C159.386 33.1441 161.844 33.4577 163.94 33.9806C166.036 34.5034 167.768 35.2302 169.098 35.9541C170.427 36.678 171.357 37.3957 171.918 37.9674C172.478 38.5391 172.671 38.9641 172.54 39.2001L172.54 39.2Z" fill="#4B4343" fill-opacity="0.9999"/>
<path d="M130.78 70.35C130.958 70.5295 130.89 70.9374 130.642 71.5666C130.39 72.1957 129.951 73.0486 129.434 74.1408C128.917 75.233 128.324 76.5681 127.804 78.1362C127.283 79.7043 126.836 81.5072 126.631 83.4686C126.424 85.4001 126.456 87.5012 126.798 89.6331C127.141 91.7651 127.796 93.924 128.774 95.9293C129.847 98.1398 131.33 100.187 133.045 101.915C134.762 103.643 136.704 105.046 138.666 106.074C140.595 107.09 142.558 107.757 144.358 108.19C146.157 108.624 147.791 108.826 149.149 108.945C150.507 109.065 151.592 109.106 152.352 109.2C153.111 109.293 153.546 109.442 153.619 109.701C153.688 109.961 153.402 110.332 152.707 110.757C152.012 111.181 150.91 111.657 149.403 112.014C147.897 112.37 145.982 112.604 143.769 112.488C141.557 112.372 139.045 111.9 136.486 110.881C133.888 109.842 131.283 108.243 128.999 106.132C126.715 104.021 124.76 101.401 123.389 98.5046C122.153 95.8778 121.411 93.07 121.146 90.3392C120.881 87.6084 121.091 84.9599 121.637 82.5951C122.194 80.1948 123.083 78.112 124.065 76.415C125.048 74.718 126.12 73.4038 127.085 72.4442C128.05 71.4846 128.908 70.875 129.546 70.5473C130.184 70.2196 130.604 70.1706 130.78 70.3501L130.78 70.35Z" fill="#4B4343" fill-opacity="0.9999"/>
<path d="M157.42 97.02C157.645 97.1069 157.722 97.556 157.712 98.3401C157.712 99.1241 157.602 100.246 157.573 101.674C157.545 103.103 157.573 104.842 157.846 106.796C158.122 108.75 158.644 110.922 159.585 113.1C160.491 115.213 161.802 117.349 163.509 119.284C165.217 121.219 167.319 122.948 169.688 124.225C172.521 125.763 175.804 126.645 179.057 126.833C180.761 126.928 182.461 126.836 184.093 126.572C185.724 126.309 187.285 125.874 188.728 125.297C190.435 124.622 191.995 123.742 193.379 122.77C194.762 121.799 195.97 120.735 197.004 119.675C198.14 118.508 199.068 117.342 199.827 116.279C200.586 115.215 201.178 114.253 201.657 113.459C202.135 112.666 202.503 112.041 202.805 111.63C203.109 111.219 203.346 111.021 203.533 111.064C203.721 111.106 203.856 111.39 203.912 111.92C203.968 112.45 203.94 113.228 203.765 114.228C203.59 115.229 203.262 116.453 202.699 117.833C202.135 119.213 201.332 120.748 200.221 122.317C199.212 123.745 197.945 125.202 196.396 126.563C194.848 127.924 193.017 129.189 190.923 130.211C189.146 131.072 187.203 131.745 185.157 132.18C183.112 132.614 180.965 132.809 178.8 132.736C176.735 132.67 174.65 132.36 172.626 131.802C170.602 131.245 168.638 130.441 166.81 129.41C163.783 127.692 161.198 125.394 159.2 122.845C157.202 120.296 155.793 117.502 154.943 114.786C154.073 111.983 153.8 109.306 153.868 106.989C153.937 104.673 154.338 102.714 154.825 101.19C155.31 99.6672 155.876 98.5743 156.346 97.8918C156.817 97.2094 157.194 96.9331 157.42 97.02H157.42Z" fill="#4B4343" fill-opacity="0.9999"/>
<path d="M171.79 41.96C171.576 42.0003 171.364 42.0455 171.154 42.096C169.646 42.4603 168.263 43.0807 167.076 43.8489C165.888 44.6172 164.894 45.532 164.112 46.4835C163.314 47.4558 162.74 48.4563 162.342 49.3804C161.943 50.3045 161.719 51.1522 161.603 51.8566C161.493 52.561 161.479 53.1227 161.52 53.5066C161.562 53.8905 161.658 54.0975 161.777 54.113C161.901 54.1285 162.033 53.9527 162.203 53.6268C162.372 53.3008 162.578 52.8242 162.858 52.2429C163.138 51.6616 163.495 50.9749 163.972 50.2435C164.447 49.5121 165.043 48.7358 165.788 47.9984C166.516 47.2755 167.39 46.5867 168.397 46.0059C169.403 45.4251 170.542 44.9526 171.761 44.6676C171.931 44.6277 172.102 44.5915 172.274 44.5589C173.496 44.3284 174.721 44.2967 175.874 44.4171C177.027 44.5376 178.108 44.8103 179.072 45.1792C180.116 45.5771 181.03 46.0888 181.803 46.6129C182.578 47.1372 183.212 47.6739 183.725 48.1407C184.238 48.6076 184.631 49.0047 184.928 49.266C185.226 49.5274 185.428 49.6527 185.537 49.5921C185.647 49.5316 185.661 49.2876 185.537 48.8865C185.427 48.4854 185.186 47.927 184.777 47.2738C184.371 46.6206 183.79 45.8727 183.001 45.1306C182.213 44.3886 181.214 43.653 180.004 43.0572C178.886 42.508 177.596 42.0857 176.198 41.8773C174.8 41.6689 173.293 41.6754 171.78 41.9599L171.79 41.96Z" fill="#4B4343" fill-opacity="0.9999"/>
<path d="M196.67 122.92C196.929 122.79 197.299 122.893 197.775 123.172C198.25 123.451 198.835 123.906 199.553 124.45C200.273 124.994 201.129 125.626 202.132 126.238C203.134 126.85 204.283 127.44 205.54 127.888C206.871 128.366 208.349 128.691 209.864 128.806C211.381 128.921 212.928 128.826 214.379 128.523C215.971 128.199 217.481 127.601 218.803 126.903C220.126 126.206 221.259 125.412 222.191 124.698C223.125 123.983 223.863 123.349 224.45 122.941C225.039 122.532 225.485 122.352 225.793 122.495C226.1 122.638 226.27 123.108 226.198 123.901C226.129 124.694 225.807 125.812 225.094 127.092C224.38 128.373 223.263 129.811 221.698 131.103C220.916 131.749 220.024 132.357 219.037 132.885C218.049 133.413 216.966 133.861 215.813 134.193C213.731 134.783 211.471 134.971 209.295 134.731C207.119 134.491 205.033 133.826 203.254 132.88C201.576 131.983 200.2 130.86 199.155 129.721C198.108 128.583 197.391 127.434 196.939 126.441C196.488 125.448 196.298 124.612 196.28 124.013C196.266 123.414 196.404 123.05 196.67 122.92L196.67 122.92Z" fill="#4B4343" fill-opacity="0.9999"/>
<path d="M213.11 106.48C213.427 106.43 213.812 106.903 214.326 107.799C214.839 108.694 215.494 110.013 216.447 111.575C217.398 113.137 218.66 114.943 220.322 116.707C221.984 118.47 224.05 120.186 226.455 121.494C227.834 122.253 229.332 122.882 230.9 123.356C232.468 123.831 234.102 124.15 235.741 124.307C237.379 124.464 239.02 124.458 240.605 124.3C242.187 124.142 243.713 123.832 245.134 123.4C247.277 122.755 249.203 121.841 250.847 120.874C252.49 119.907 253.853 118.891 254.952 118.011C256.052 117.132 256.894 116.39 257.53 115.919C258.164 115.449 258.597 115.251 258.835 115.394C259.073 115.537 259.116 116.022 258.89 116.832C258.668 117.643 258.178 118.779 257.305 120.112C256.433 121.446 255.171 122.975 253.452 124.457C251.732 125.939 249.548 127.369 246.958 128.442C245.229 129.153 243.339 129.693 241.356 130.007C239.373 130.321 237.301 130.409 235.227 130.247C233.155 130.086 231.082 129.675 229.104 129.03C227.126 128.385 225.243 127.505 223.532 126.439C222.048 125.508 220.709 124.447 219.534 123.321C218.358 122.194 217.346 121.002 216.493 119.806C214.788 117.413 213.733 115.017 213.145 112.995C212.85 111.983 212.668 111.063 212.567 110.26C212.47 109.456 212.443 108.771 212.47 108.216C212.526 107.107 212.782 106.53 213.099 106.48L213.11 106.48Z" fill="#4B4343" fill-opacity="0.9999"/>
<path d="M250.09 112.7C250.25 112.447 250.67 112.368 251.316 112.401C251.96 112.434 252.833 112.576 253.908 112.707C254.982 112.837 256.263 112.953 257.679 112.924C259.095 112.895 260.647 112.718 262.188 112.284C263.862 111.821 265.561 111.043 267.101 110.002C268.64 108.961 270.012 107.662 271.079 106.243C272.137 104.853 272.918 103.312 273.473 101.838C274.028 100.363 274.359 98.9581 274.587 97.7628C274.813 96.5675 274.941 95.5789 275.103 94.8719C275.265 94.1649 275.468 93.7368 275.777 93.6508C276.086 93.5649 276.504 93.8235 276.952 94.4842C277.401 95.1448 277.878 96.214 278.173 97.6706C278.468 99.1272 278.572 100.975 278.242 103.03C277.915 105.085 277.15 107.341 275.826 109.464C275.154 110.535 274.35 111.556 273.437 112.487C272.524 113.417 271.502 114.258 270.407 114.978C269.313 115.698 268.146 116.298 266.949 116.762C265.752 117.225 264.527 117.553 263.317 117.746C261.085 118.095 258.964 117.975 257.158 117.588C255.352 117.202 253.858 116.556 252.739 115.882C251.62 115.208 250.869 114.51 250.447 113.946C250.025 113.382 249.924 112.953 250.086 112.7H250.09Z" fill="#4B4343" fill-opacity="0.9999"/>
<path d="M248.45 110.53C248.691 110.267 248.917 109.993 249.127 109.71C249.867 108.711 250.393 107.62 250.717 106.541C251.042 105.462 251.169 104.395 251.146 103.417C251.118 102.414 250.943 101.514 250.695 100.755C250.448 99.9963 250.134 99.3776 249.826 98.9047C249.519 98.4317 249.218 98.1033 248.978 97.9088C248.74 97.7144 248.56 97.6527 248.461 97.7167C248.364 97.7807 248.351 97.9659 248.392 98.2531C248.433 98.5403 248.531 98.9308 248.636 99.4165C248.746 99.9021 248.853 100.484 248.917 101.146C248.986 101.809 249 102.553 248.917 103.341C248.835 104.11 248.65 104.927 248.34 105.745C248.029 106.562 247.594 107.379 247.021 108.125C246.86 108.336 246.688 108.542 246.504 108.742C245.877 109.425 245.158 109.995 244.414 110.445C243.668 110.894 242.896 111.222 242.146 111.439C241.284 111.691 240.44 111.799 239.679 111.828C238.918 111.857 238.238 111.808 237.67 111.746C237.1 111.684 236.641 111.611 236.308 111.586C235.974 111.56 235.764 111.585 235.705 111.698C235.65 111.811 235.746 112.005 236 112.252C236.259 112.5 236.683 112.799 237.277 113.079C237.87 113.359 238.635 113.618 239.548 113.76C240.461 113.902 241.522 113.925 242.66 113.727C243.647 113.553 244.679 113.213 245.673 112.682C246.668 112.152 247.625 111.431 248.453 110.53L248.45 110.53Z" fill="#4B4343" fill-opacity="0.9999"/>
<path d="M274.62 90.47C274.496 90.2447 274.579 89.9122 274.81 89.4748C275.046 89.0373 275.436 88.4926 275.904 87.8162C276.371 87.1398 276.914 86.329 277.433 85.3737C277.95 84.4184 278.442 83.3174 278.783 82.1063C279.126 80.9044 279.326 79.5714 279.326 78.1956C279.326 76.8199 279.125 75.4048 278.7 74.0764C278.264 72.6936 277.571 71.3672 276.721 70.2011C275.871 69.035 274.864 68.0325 273.813 67.2416C272.772 66.4512 271.665 65.8526 270.624 65.397C269.584 64.9413 268.611 64.6272 267.785 64.3781C266.96 64.129 266.283 63.9423 265.804 63.7434C265.322 63.5445 265.038 63.3306 264.994 63.07C264.953 62.8095 265.144 62.5008 265.615 62.1871C266.086 61.8733 266.836 61.5557 267.861 61.3528C268.887 61.1499 270.188 61.0655 271.68 61.2552C273.172 61.4449 274.853 61.9135 276.535 62.7867C278.224 63.67 279.875 64.9502 281.256 66.5745C282.637 68.1988 283.743 70.1642 284.404 72.2915C285.034 74.3363 285.24 76.4745 285.065 78.4919C284.89 80.5093 284.335 82.4015 283.549 84.0177C282.752 85.6425 281.742 86.9591 280.72 87.9602C279.7 88.9614 278.671 89.6503 277.783 90.0926C276.896 90.5349 276.15 90.7344 275.613 90.7739C275.075 90.8134 274.744 90.6952 274.62 90.4699L274.62 90.47Z" fill="#4B4343" fill-opacity="0.9999"/>
<path d="M266.51 57.92C266.427 57.3362 266.322 56.7626 266.18 56.2036C265.781 54.6371 265.139 53.2025 264.36 51.9587C263.581 50.7149 262.664 49.662 261.713 48.8137C260.735 47.9416 259.727 47.2895 258.794 46.8149C257.859 46.3403 256.999 46.042 256.278 45.8627C255.558 45.6834 254.977 45.6215 254.577 45.6262C254.176 45.6302 253.954 45.7008 253.929 45.8144C253.902 45.9279 254.077 46.0782 254.405 46.2765C254.733 46.4748 255.219 46.7227 255.813 47.0565C256.406 47.3902 257.109 47.8111 257.859 48.3577C258.608 48.9044 259.405 49.5774 260.164 50.4019C260.904 51.2029 261.611 52.1514 262.212 53.2341C262.813 54.3168 263.31 55.5334 263.623 56.8385C263.733 57.3031 263.824 57.7799 263.887 58.2658C264.06 59.5734 264.042 60.8712 263.887 62.0935C263.722 63.3158 263.409 64.4618 262.998 65.4916C262.513 66.7141 261.889 67.7801 261.251 68.6771C260.613 69.5742 259.959 70.3033 259.39 70.887C258.821 71.4707 258.335 71.911 258.012 72.2398C257.689 72.5686 257.528 72.7888 257.589 72.9025C257.644 73.0163 257.927 73.0159 258.39 72.8768C258.855 72.7379 259.503 72.4579 260.262 71.9827C261.022 71.5075 261.891 70.8345 262.751 69.9208C263.613 69.0072 264.464 67.8511 265.149 66.4542C265.725 65.2763 266.176 63.9369 266.427 62.4904C266.678 61.0439 266.728 59.4908 266.524 57.9199L266.51 57.92Z" fill="#4B4343" fill-opacity="0.9999"/>
<path d="M254.61 45.63C254.337 45.6053 254.086 45.3981 253.831 45.0637C253.577 44.7293 253.315 44.267 252.995 43.7328C252.677 43.1987 252.295 42.591 251.816 41.9874C251.339 41.3838 250.764 40.7839 250.093 40.3061C249.413 39.8078 248.593 39.4013 247.71 39.1391C246.828 38.8768 245.89 38.7597 245.012 38.8356C244.246 38.8913 243.47 39.0893 242.75 39.3819C242.032 39.6745 241.373 40.0614 240.81 40.4978C240.23 40.9405 239.729 41.4567 239.303 41.9641C238.877 42.4716 238.526 42.9708 238.219 43.4045C237.912 43.8382 237.65 44.2074 237.399 44.4679C237.147 44.7284 236.904 44.8802 236.656 44.8819C236.409 44.8839 236.155 44.7341 235.931 44.4025C235.706 44.0709 235.509 43.5553 235.422 42.861C235.339 42.1667 235.353 41.2922 235.601 40.3068C235.844 39.3214 236.306 38.2256 237.072 37.1609C237.824 36.1236 238.847 35.1492 240.095 34.3945C241.341 33.6397 242.812 33.1083 244.38 32.9148C246.207 32.7018 248.066 32.9617 249.709 33.6129C251.353 34.2641 252.773 35.3009 253.828 36.5094C254.85 37.6977 255.481 38.9886 255.815 40.1679C256.149 41.3472 256.189 42.4133 256.083 43.2555C255.972 44.0977 255.725 44.7181 255.452 45.1065C255.178 45.4949 254.883 45.6547 254.61 45.63L254.61 45.63Z" fill="#4B4343" fill-opacity="0.9999"/>
<path d="M238.91 40.12C238.55 40.2538 238.043 39.9522 237.373 39.3391C236.704 38.7259 235.863 37.804 234.779 36.7655C233.694 35.727 232.36 34.5745 230.794 33.5351C229.229 32.4958 227.435 31.5768 225.549 30.9707C224.243 30.543 222.877 30.2584 221.524 30.1034C220.171 29.9484 218.832 29.9225 217.579 29.9844C216.334 30.0495 215.169 30.2001 214.126 30.3764C213.085 30.5527 212.166 30.7537 211.389 30.9133C210.612 31.0729 209.977 31.1897 209.495 31.2067C209.014 31.2237 208.684 31.1395 208.53 30.9251C208.374 30.7108 208.392 30.3654 208.612 29.9052C208.837 29.4451 209.273 28.8702 209.944 28.2478C210.617 27.6254 211.529 26.957 212.677 26.3482C213.824 25.7394 215.209 25.1927 216.771 24.8214C218.343 24.4439 220.097 24.2459 221.915 24.3086C223.736 24.3712 225.618 24.6963 227.42 25.296C228.716 25.7335 229.951 26.305 231.09 26.9751C232.228 27.6452 233.266 28.4134 234.18 29.2321C235.096 30.0507 235.887 30.9192 236.551 31.7866C237.213 32.654 237.747 33.5198 238.163 34.3382C238.579 35.1565 238.877 35.9272 239.077 36.6151C239.278 37.303 239.383 37.9082 239.415 38.4093C239.484 39.4115 239.266 39.9864 238.904 40.1201L238.91 40.12Z" fill="#4B4343" fill-opacity="0.9999"/>
<path d="M285.67 35.46C285.318 35.6929 284.759 35.5902 284.026 35.2755C283.294 34.9609 282.38 34.4407 281.285 33.8858C280.19 33.331 278.909 32.7442 277.518 32.2798C276.127 31.8154 274.632 31.4778 273.164 31.3521C271.898 31.2349 270.625 31.2616 269.439 31.3693C268.254 31.4769 267.156 31.6638 266.207 31.8337C265.259 32.0037 264.456 32.1544 263.833 32.1837C263.208 32.2131 262.76 32.1171 262.534 31.8347C262.309 31.5523 262.308 31.08 262.603 30.4553C262.9 29.8306 263.498 29.0547 264.438 28.2831C265.379 27.5115 266.667 26.7512 268.225 26.2125C269.783 25.6737 271.608 25.3654 273.496 25.4249C274.599 25.4649 275.706 25.6284 276.768 25.9038C277.83 26.1792 278.846 26.5662 279.777 27.0343C280.708 27.5023 281.553 28.0508 282.291 28.6372C283.027 29.2236 283.654 29.8474 284.169 30.4636C284.682 31.0798 285.08 31.6879 285.375 32.2495C285.669 32.8111 285.858 33.3258 285.958 33.7674C286.055 34.2089 286.069 34.5773 286.027 34.861C285.972 35.1446 285.852 35.3436 285.677 35.4601L285.67 35.46Z" fill="#4B4343" fill-opacity="0.9999"/>
<path d="M287.15 101.19C287.423 101.114 287.762 101.249 288.128 101.64C288.493 102.03 288.883 102.68 289.182 103.596C289.483 104.511 289.686 105.695 289.639 107.069C289.597 108.443 289.289 110.005 288.607 111.579C287.89 113.221 286.774 114.824 285.331 116.15C283.888 117.476 282.124 118.517 280.246 119.133C278.805 119.601 277.331 119.813 275.937 119.802C274.542 119.791 273.228 119.56 272.072 119.187C270.871 118.797 269.859 118.26 269.051 117.691C268.244 117.121 267.643 116.521 267.225 115.977C266.808 115.434 266.572 114.948 266.479 114.564C266.383 114.181 266.438 113.9 266.603 113.726C266.765 113.553 267.036 113.485 267.403 113.496C267.77 113.507 268.232 113.598 268.783 113.721C269.335 113.845 269.976 114.001 270.697 114.136C271.417 114.271 272.217 114.385 273.065 114.419C273.881 114.453 274.753 114.416 275.639 114.28C276.527 114.145 277.429 113.911 278.288 113.568C279.399 113.13 280.472 112.483 281.417 111.704C282.36 110.925 283.17 110.018 283.798 109.074C284.403 108.175 284.858 107.215 285.203 106.307C285.546 105.398 285.782 104.541 285.974 103.805C286.165 103.069 286.317 102.453 286.495 102.003C286.674 101.552 286.882 101.266 287.155 101.19L287.15 101.19Z" fill="#4B4343" fill-opacity="0.9999"/>
<path d="M306.12 81.49C306.32 81.3528 306.64 81.3831 307.064 81.614C307.489 81.845 308.019 82.278 308.587 82.9461C309.155 83.6141 309.759 84.5192 310.288 85.6662C310.818 86.8132 311.269 88.2034 311.509 89.7863C311.739 91.3229 311.766 93.0265 311.509 94.7821C311.253 96.5378 310.713 98.3433 309.876 100.054C308.85 102.141 307.393 104.041 305.684 105.567C303.976 107.092 302.022 108.238 300.074 108.962C298.186 109.659 296.342 109.954 294.722 109.983C293.103 110.012 291.71 109.781 290.622 109.455C289.535 109.13 288.751 108.714 288.268 108.332C287.785 107.95 287.601 107.603 287.674 107.335C287.743 107.067 288.079 106.876 288.628 106.725C289.177 106.574 289.942 106.46 290.879 106.299C291.817 106.139 292.927 105.929 294.134 105.58C295.339 105.231 296.639 104.742 297.905 104.047C299.216 103.333 300.511 102.387 301.665 101.248C302.819 100.109 303.828 98.7801 304.587 97.3611C305.216 96.1945 305.688 94.9519 306.012 93.717C306.335 92.4822 306.51 91.2564 306.567 90.1056C306.622 88.9199 306.567 87.8021 306.456 86.803C306.346 85.8039 306.194 84.9226 306.069 84.1814C305.945 83.4402 305.85 82.8377 305.841 82.3846C305.841 81.9316 305.91 81.627 306.117 81.4898L306.12 81.49Z" fill="#4B4343" fill-opacity="0.9999"/>
<path d="M323.88 66.74C324.076 66.5766 324.394 66.5549 324.829 66.7165C325.262 66.8782 325.81 67.2252 326.402 67.803C326.993 68.3807 327.626 69.1918 328.177 70.248C328.725 71.3043 329.187 72.6074 329.411 74.1017C329.627 75.5791 329.602 77.2173 329.259 78.8711C328.916 80.525 328.252 82.1909 327.28 83.6988C326.227 85.3213 324.844 86.713 323.306 87.7576C321.768 88.8022 320.083 89.4985 318.453 89.8522C316.842 90.1971 315.325 90.2052 314.032 90.0195C312.739 89.8338 311.667 89.4586 310.857 89.0421C310.047 88.6256 309.497 88.1705 309.181 87.776C308.867 87.3815 308.784 87.0479 308.89 86.8027C309.001 86.5575 309.293 86.3992 309.741 86.2932C310.191 86.1873 310.795 86.1316 311.523 86.0583C312.251 85.9849 313.106 85.8924 314.035 85.7079C314.963 85.5234 315.967 85.2462 316.951 84.8167C317.95 84.3866 318.953 83.7907 319.874 83.0451C320.794 82.2995 321.628 81.4066 322.285 80.4235C322.9 79.5113 323.379 78.4957 323.717 77.4646C324.055 76.4335 324.251 75.389 324.323 74.4011C324.405 73.4016 324.35 72.4401 324.254 71.5719C324.157 70.7037 324.005 69.9282 323.879 69.2675C323.755 68.6068 323.65 68.0593 323.635 67.6337C323.621 67.2082 323.69 66.9033 323.884 66.7399L323.88 66.74Z" fill="#4B4343" fill-opacity="0.9999"/>
<path d="M304.14 48.39C304.016 48.1586 304.071 47.8213 304.352 47.4013C304.635 46.9812 305.147 46.4785 305.919 45.9865C306.691 45.4945 307.726 45.0157 309.002 44.6968C310.279 44.3779 311.795 44.223 313.446 44.3848C315.105 44.5515 316.863 45.0401 318.528 45.8845C320.193 46.729 321.759 47.9292 323.041 49.4029C324.28 50.8347 325.221 52.4862 325.82 54.1774C326.418 55.8686 326.676 57.5949 326.653 59.1871C326.625 60.7873 326.315 62.2225 325.879 63.4105C325.445 64.5985 324.885 65.5406 324.342 66.2313C323.797 66.9219 323.269 67.3639 322.839 67.5954C322.409 67.8268 322.078 67.8501 321.862 67.7074C321.647 67.5647 321.547 67.2564 321.525 66.8077C321.511 66.3591 321.552 65.7687 321.621 65.0526C321.69 64.3365 321.762 63.493 321.77 62.5548C321.77 61.6166 321.715 60.5832 321.514 59.5247C321.315 58.4711 320.972 57.3721 320.471 56.3093C319.972 55.2465 319.317 54.2222 318.531 53.3319C317.726 52.4111 316.757 51.6073 315.722 50.9629C314.688 50.3185 313.592 49.835 312.525 49.5141C311.463 49.1908 310.407 49.0221 309.44 48.9374C308.474 48.8527 307.597 48.8515 306.852 48.8552C306.106 48.8592 305.493 48.8662 305.031 48.8072C304.57 48.7483 304.261 48.6213 304.136 48.3899L304.14 48.39Z" fill="#4B4343" fill-opacity="0.9999"/>
<path d="M274.68 47.11C274.411 46.9997 274.262 46.5756 274.301 45.8394C274.342 45.1032 274.568 44.0529 275.107 42.7871C275.647 41.5213 276.5 40.0408 277.756 38.5512C279.014 37.0616 280.678 35.568 282.726 34.3399C284.901 33.0406 287.474 32.0737 290.188 31.6299C291.545 31.408 292.935 31.3143 294.315 31.3542C295.695 31.3941 297.067 31.5676 298.39 31.8659C299.843 32.1985 301.22 32.6795 302.488 33.2654C303.753 33.8512 304.909 34.5414 305.935 35.2853C306.959 36.0291 307.856 36.8263 308.617 37.6265C309.379 38.4267 310.009 39.2296 310.518 39.9916C311.534 41.5157 312.062 42.8631 312.269 43.8198C312.475 44.7765 312.366 45.3443 312.069 45.499C311.769 45.6537 311.272 45.3997 310.568 44.8481C309.862 44.2965 308.938 43.4499 307.729 42.5017C306.519 41.5535 305.018 40.5058 303.239 39.6037C301.46 38.7016 299.409 37.9508 297.237 37.5938C295.249 37.2577 293.135 37.2334 291.087 37.5162C289.038 37.799 287.064 38.3874 285.319 39.1862C283.673 39.9347 282.21 40.8756 280.966 41.8319C279.723 42.7882 278.697 43.758 277.861 44.5912C277.026 45.4243 276.373 46.1205 275.856 46.5696C275.338 47.0188 274.949 47.2203 274.68 47.11L274.68 47.11Z" fill="#4B4343" fill-opacity="0.9999"/>
<path d="M274.68 47.11C274.411 46.9997 274.262 46.5756 274.301 45.8394C274.342 45.1032 274.568 44.0529 275.107 42.7871C275.647 41.5213 276.5 40.0408 277.756 38.5512C279.014 37.0616 280.678 35.568 282.726 34.3399C284.901 33.0406 287.474 32.0737 290.188 31.6299C291.545 31.408 292.935 31.3143 294.315 31.3542C295.695 31.3941 297.067 31.5676 298.39 31.8659C299.843 32.1985 301.22 32.6795 302.488 33.2654C303.753 33.8512 304.909 34.5414 305.935 35.2853C306.959 36.0291 307.856 36.8263 308.617 37.6265C309.379 38.4267 310.009 39.2296 310.518 39.9916C311.534 41.5157 312.062 42.8631 312.269 43.8198C312.475 44.7765 312.366 45.3443 312.069 45.499C311.769 45.6537 311.272 45.3997 310.568 44.8481C309.862 44.2965 308.938 43.4499 307.729 42.5017C306.519 41.5535 305.018 40.5058 303.239 39.6037C301.46 38.7016 299.409 37.9508 297.237 37.5938C295.249 37.2577 293.135 37.2334 291.087 37.5162C289.038 37.799 287.064 38.3874 285.319 39.1862C283.673 39.9347 282.21 40.8756 280.966 41.8319C279.723 42.7882 278.697 43.758 277.861 44.5912C277.026 45.4243 276.373 46.1205 275.856 46.5696C275.338 47.0188 274.949 47.2203 274.68 47.11L274.68 47.11Z" fill="#4B4343" fill-opacity="0.9999"/>
<path d="M44.77 49.85C44.2846 49.8138 43.7993 49.8022 43.3194 49.8147C41.32 49.8709 39.4241 50.3446 37.7653 51.0833C36.1051 51.822 34.6849 52.8241 33.5543 53.9292C32.3974 55.0632 31.5536 56.2882 30.9593 57.4375C30.365 58.5867 30.0189 59.6606 29.8259 60.5558C29.6342 61.4509 29.5942 62.1688 29.6204 62.6578C29.648 63.1468 29.7307 63.4085 29.8535 63.4223C29.9776 63.4361 30.1086 63.2025 30.2933 62.7735C30.4781 62.3444 30.7125 61.7189 31.0627 60.9602C31.4116 60.2014 31.8804 59.3082 32.5298 58.374C33.1793 57.4398 34.0121 56.464 35.0642 55.5868C36.0901 54.7291 37.3324 53.9625 38.7458 53.4013C40.1591 52.84 41.7434 52.4846 43.3829 52.454C43.7759 52.446 44.173 52.457 44.5729 52.4862C46.1889 52.607 47.7415 53.0338 49.1218 53.6601C50.5034 54.2864 51.7127 55.1118 52.7013 56.0331C53.8209 57.0721 54.6717 58.2375 55.3046 59.3509C55.9375 60.4643 56.3525 61.5265 56.6435 62.4267C56.9331 63.327 57.0985 64.0674 57.2337 64.5804C57.3715 65.0933 57.4777 65.3807 57.6046 65.3838C57.7287 65.3868 57.8679 65.1036 57.9645 64.5533C58.061 64.0029 58.1092 63.1829 57.992 62.1466C57.8816 61.1103 57.6018 59.8557 57.0323 58.5057C56.4628 57.1557 55.5969 55.71 54.349 54.3803C53.2418 53.2065 51.8464 52.145 50.2179 51.3421C48.5895 50.5392 46.728 49.9966 44.7645 49.85H44.77Z" fill="#4B4343" fill-opacity="0.9999"/>
<path d="M149.26 37.35C148.964 37.3736 148.652 37.1119 148.295 36.637C147.939 36.162 147.531 35.4733 146.993 34.6657C146.454 33.8581 145.781 32.9299 144.922 32.0205C144.062 31.111 143.017 30.2215 141.807 29.5438C140.51 28.8002 138.971 28.2774 137.373 28.0535C135.775 27.8295 134.128 27.9061 132.645 28.2871V28.2871C131.675 28.5306 130.749 28.8946 129.902 29.3303C129.057 29.7661 128.29 30.2731 127.619 30.8029C126.905 31.3656 126.288 31.9608 125.759 32.5205C125.229 33.0802 124.785 33.6047 124.403 34.0426C124.02 34.4806 123.697 34.8324 123.413 35.0595C123.129 35.2867 122.881 35.389 122.666 35.3387C122.451 35.2884 122.269 35.0846 122.147 34.7152C122.023 34.3458 121.961 33.8097 122.01 33.122C122.065 32.4343 122.227 31.5942 122.576 30.6566C122.925 29.719 123.457 28.684 124.227 27.6504C124.952 26.6797 125.881 25.7208 127.007 24.8759C128.133 24.0311 129.457 23.3019 130.924 22.7853C132.073 22.3863 133.29 22.124 134.53 22.0147C135.769 21.9054 137.03 21.9492 138.261 22.1436C139.491 22.338 140.692 22.6829 141.816 23.1577C142.939 23.6324 143.985 24.2367 144.919 24.9352C146.643 26.24 147.91 27.8172 148.753 29.3478C149.594 30.8784 150.016 32.3568 150.171 33.5743C150.327 34.7918 150.227 35.7495 150.032 36.382C149.838 37.0145 149.554 37.3264 149.256 37.35H149.26Z" fill="#4B4343" fill-opacity="0.9999"/>
<path d="M125.04 30.34C124.808 30.4266 124.509 30.3173 124.137 30.0593C123.763 29.8015 123.316 29.3953 122.761 28.9104C122.205 28.4255 121.539 27.8614 120.741 27.3118C119.944 26.7622 119.012 26.2268 117.971 25.8291C116.954 25.436 115.809 25.1644 114.608 25.0743C113.407 24.9843 112.153 25.0763 110.972 25.3873C109.6 25.7367 108.262 26.4125 107.109 27.2863C105.957 28.1601 104.996 29.2273 104.305 30.35C103.621 31.4396 103.17 32.621 102.878 33.729C102.585 34.8369 102.449 35.8717 102.366 36.7488C102.283 37.626 102.256 38.3491 102.165 38.8803C102.082 39.4115 101.939 39.7536 101.688 39.8646C101.437 39.9756 101.074 39.8536 100.641 39.4423C100.208 39.0303 99.7062 38.323 99.2857 37.2938C98.8651 36.2646 98.5314 34.9087 98.4997 33.3067C98.4722 31.7047 98.7466 29.8564 99.5256 27.9874C99.931 27.0318 100.459 26.0901 101.106 25.2016C101.754 24.3131 102.521 23.4782 103.389 22.7341C105.127 21.246 107.278 20.1332 109.58 19.5995C111.551 19.1528 113.558 19.1415 115.403 19.4849C117.248 19.8283 118.926 20.5231 120.319 21.4097C121.742 22.3219 122.834 23.4084 123.623 24.4659C124.413 25.5234 124.902 26.5501 125.181 27.415C125.459 28.2799 125.53 28.9837 125.483 29.4767C125.441 29.9697 125.272 30.2536 125.04 30.3402L125.04 30.34Z" fill="#4B4343" fill-opacity="0.9999"/>
<path d="M92.84 29.17C92.5297 29.2125 92.2236 29.272 91.923 29.3479C90.8558 29.6208 89.8947 30.0936 89.0881 30.6763C88.2829 31.2591 87.6335 31.9507 87.1454 32.6627C86.6476 33.3943 86.3249 34.1354 86.1318 34.8084C85.9388 35.4813 85.8726 36.0864 85.8768 36.58C85.8768 37.0735 85.9595 37.4561 86.0505 37.7111C86.147 37.9662 86.2628 38.0945 86.38 38.0946C86.4903 38.0948 86.6089 37.9678 86.7289 37.7451C86.853 37.5224 86.9785 37.2035 87.1481 36.8186C87.3191 36.4336 87.53 35.9821 87.8141 35.5032C88.0981 35.0243 88.4538 34.5177 88.9033 34.0411C89.3404 33.5756 89.8727 33.1326 90.489 32.76C91.1054 32.3873 91.8059 32.085 92.556 31.9096C92.7642 31.8597 92.9793 31.8197 93.1985 31.7899C93.9514 31.6874 94.707 31.7125 95.4129 31.8339C96.1189 31.9553 96.7752 32.1729 97.353 32.4531C98.0204 32.7729 98.5954 33.1807 99.0766 33.5949C99.5578 34.0092 99.9453 34.4303 100.26 34.7973C100.573 35.1644 100.815 35.4781 101.013 35.6898C101.211 35.9016 101.367 36.0117 101.49 35.9765C101.614 35.9413 101.692 35.7615 101.705 35.4468C101.719 35.1321 101.663 34.6818 101.481 34.1371C101.301 33.5924 100.996 32.9531 100.516 32.3003C100.036 31.6475 99.38 30.9819 98.5279 30.4238C97.7861 29.9408 96.9077 29.5501 95.9398 29.3207C94.9718 29.0913 93.9129 29.0238 92.8401 29.1702L92.84 29.17Z" fill="#4B4343" fill-opacity="0.9999"/>
<path d="M76.98 49.1C76.98 49.3639 76.7856 49.6223 76.4422 49.8861C76.0975 50.1499 75.6011 50.4205 74.9944 50.7344C74.3891 51.0483 73.6735 51.4068 72.9055 51.8486C72.1361 52.2903 71.3143 52.8159 70.5132 53.4489C69.7065 54.0838 68.911 54.8353 68.187 55.6863C67.4644 56.5372 66.8137 57.4862 66.2924 58.4881C65.785 59.4563 65.3878 60.49 65.1051 61.5249C64.8211 62.5598 64.6515 63.5946 64.5743 64.5745C64.4916 65.5597 64.5053 66.5012 64.5605 67.3545C64.6157 68.2078 64.6984 68.9733 64.7549 69.627C64.8239 70.2807 64.8514 70.8237 64.8101 71.2402C64.7687 71.6567 64.6584 71.9475 64.4433 72.0899C64.2282 72.2322 63.9111 72.2258 63.503 72.0373C63.0962 71.8488 62.5998 71.4767 62.0758 70.8914C61.5505 70.3061 60.999 69.5058 60.5219 68.4909C60.0448 67.476 59.6449 66.2454 59.4366 64.8522C59.2312 63.4662 59.2215 61.9346 59.4642 60.3735C59.711 58.8125 60.2171 57.2249 60.9742 55.7454C61.7587 54.216 62.7997 52.828 63.9855 51.6798C65.1713 50.5316 66.4978 49.6242 67.8215 48.9797C69.1383 48.3402 70.4344 47.9658 71.5899 47.7876C72.7468 47.6095 73.7617 47.6248 74.5739 47.7424C75.386 47.8601 75.9969 48.0777 76.394 48.322C76.7911 48.5662 76.9772 48.8363 76.9745 49.1001L76.98 49.1Z" fill="#4B4343" fill-opacity="0.9999"/>
<path d="M87.05 37.43C87.119 37.7288 86.9259 38.0748 86.5591 38.4811C86.191 38.8875 85.6436 39.3589 85.0106 39.9476C84.3777 40.5362 83.6579 41.246 82.9713 42.0989C82.286 42.9519 81.6339 43.9481 81.1651 45.0493C80.6328 46.2669 80.306 47.6666 80.226 49.0863C80.1433 50.506 80.3087 51.9346 80.71 53.2056C81.0561 54.3593 81.598 55.429 82.1936 56.3585C82.7879 57.288 83.4332 58.0773 84.0054 58.7352C84.5777 59.393 85.0782 59.9236 85.4036 60.3694C85.7304 60.8153 85.8835 61.1813 85.7883 61.4732C85.6918 61.7652 85.3443 61.984 84.7293 62.0523C84.1144 62.1207 83.2277 62.0338 82.1632 61.6604C81.0987 61.2869 79.8564 60.6194 78.654 59.5684C77.453 58.5174 76.2989 57.0784 75.4716 55.3005C75.0207 54.315 74.6788 53.248 74.4692 52.1407C74.261 51.0334 74.1865 49.8862 74.2514 48.7471C74.3204 47.6081 74.5216 46.4777 74.8553 45.4027C75.1876 44.3278 75.6481 43.3088 76.208 42.3835C77.2228 40.7247 78.519 39.436 79.8179 38.5333C81.1168 37.6306 82.4115 37.1085 83.4995 36.8557C84.5874 36.6029 85.4685 36.6121 86.0683 36.7451C86.6667 36.8782 86.9853 37.131 87.0501 37.4298L87.05 37.43Z" fill="#4B4343" fill-opacity="0.9999"/>
<path d="M66.86 88.3399C67.6652 89.1905 68.5656 89.9162 69.5129 90.5025C70.4602 91.0888 71.4543 91.5355 72.4513 91.8432C74.2369 92.3867 75.9757 92.474 77.4828 92.3055C78.9899 92.1369 80.2653 91.7161 81.2485 91.2459C82.2316 90.7758 82.9266 90.2596 83.3527 89.8527C83.7788 89.4458 83.9401 89.1507 83.8574 89.0342C83.7747 88.9177 83.4561 88.9859 82.9294 89.1526C82.404 89.3194 81.6664 89.5815 80.7274 89.8047C79.7884 90.0279 78.6439 90.2106 77.3588 90.2059C76.0737 90.2019 74.6466 90.0084 73.2388 89.4858C71.6614 88.9086 70.0909 87.9001 68.7823 86.519C67.5965 85.2671 66.7292 83.8184 66.2217 82.3628C65.7005 80.8931 65.5378 79.4013 65.5764 78.0619C65.6178 76.7224 65.8508 75.5344 66.1279 74.5646C66.4051 73.5947 66.7181 72.8384 66.9235 72.299C67.129 71.7597 67.2214 71.4311 67.1069 71.3398C66.9966 71.2485 66.6753 71.4033 66.23 71.8301C65.7832 72.2567 65.2095 72.9616 64.6787 73.9721C64.1465 74.9826 63.6612 76.3041 63.4433 77.8738C63.2254 79.4435 63.2805 81.2628 63.8279 83.1287C64.3754 84.9688 65.3999 86.7982 66.8601 88.3401L66.86 88.3399Z" fill="#4B4343" fill-opacity="0.9999"/>
<path d="M76.25 91.27C76.4885 91.1863 76.8071 91.3463 77.2138 91.7063C77.6206 92.0663 78.117 92.626 78.7443 93.3135C79.3703 94.001 80.1301 94.8167 81.058 95.659C81.9846 96.5014 83.0822 97.3701 84.3493 98.1345C85.5972 98.8899 87.0229 99.5504 88.5659 100.027C90.1075 100.503 91.7621 100.793 93.4223 100.835C95.241 100.886 97.097 100.633 98.8343 100.136C100.573 99.6381 102.191 98.8977 103.589 98.0203C104.968 97.1594 106.152 96.1565 107.139 95.1735C108.128 94.1905 108.921 93.2282 109.566 92.4103C110.211 91.5924 110.712 90.9184 111.126 90.4743C111.539 90.0302 111.867 89.8161 112.128 89.8855C112.389 89.9549 112.579 90.3092 112.645 90.9581C112.714 91.607 112.645 92.5524 112.343 93.7313C112.038 94.9102 111.485 96.3231 110.577 97.8117C109.668 99.3004 108.397 100.862 106.727 102.259C105.031 103.673 102.946 104.888 100.624 105.697C98.3021 106.505 95.7485 106.903 93.2127 106.801C90.9059 106.704 88.6542 106.198 86.6314 105.388C84.6072 104.578 82.8147 103.466 81.3435 102.223C79.8529 100.959 78.7071 99.5793 77.8715 98.2726C77.0359 96.9658 76.5064 95.7342 76.1962 94.703C75.886 93.6718 75.7895 92.8406 75.8225 92.2614C75.8501 91.6822 76.0128 91.3538 76.25 91.27V91.27Z" fill="#4B4343" fill-opacity="0.9999"/>
<path d="M104.58 101.47C104.821 101.418 105.096 101.529 105.405 101.766C105.713 102.003 106.061 102.366 106.47 102.806C106.879 103.247 107.353 103.765 107.913 104.301C108.474 104.837 109.122 105.389 109.86 105.881C110.579 106.363 111.399 106.796 112.285 107.133C113.173 107.469 114.126 107.706 115.086 107.803C116.198 107.92 117.364 107.844 118.474 107.607C119.585 107.37 120.636 106.972 121.554 106.471C122.453 105.986 123.25 105.387 123.934 104.784C124.619 104.18 125.19 103.573 125.675 103.048C126.159 102.523 126.558 102.08 126.909 101.786C127.261 101.492 127.567 101.346 127.835 101.403C128.104 101.459 128.335 101.719 128.479 102.203C128.623 102.688 128.677 103.4 128.548 104.298C128.41 105.195 128.082 106.279 127.457 107.421C126.832 108.563 125.91 109.76 124.654 110.812C123.363 111.885 121.754 112.769 119.972 113.291C118.19 113.813 116.241 113.97 114.348 113.709C112.728 113.48 111.192 112.954 109.854 112.225C108.515 111.496 107.377 110.567 106.484 109.571C105.572 108.55 104.932 107.479 104.513 106.492C104.092 105.504 103.892 104.6 103.832 103.858C103.776 103.116 103.845 102.535 103.99 102.137C104.133 101.739 104.344 101.522 104.586 101.47L104.58 101.47Z" fill="#4B4343" fill-opacity="0.9999"/>
<path d="M117.55 20.85C117.302 20.9282 117.007 20.846 116.666 20.6326C116.326 20.4192 115.939 20.0748 115.495 19.6402C114.607 18.7711 113.473 17.535 112.017 16.356C110.934 15.4772 109.656 14.6294 108.258 13.9389C106.86 13.2485 105.35 12.7194 103.867 12.4046C102.613 12.1336 101.355 12.0102 100.191 11.973C99.0263 11.9358 97.9535 11.984 97.0352 12.0287C96.1155 12.0741 95.3475 12.115 94.767 12.0648C94.1852 12.0146 93.7908 11.8701 93.6253 11.5857C93.4599 11.3013 93.5288 10.8747 93.8777 10.3432C94.2293 9.81165 94.8705 9.17613 95.826 8.56703C96.7815 7.95787 98.0542 7.38011 99.5765 7.01021C101.1 6.64031 102.871 6.48505 104.718 6.67476C105.809 6.7892 106.912 7.02087 107.983 7.36635C109.055 7.71183 110.096 8.1709 111.064 8.72212C112.032 9.27329 112.927 9.91621 113.722 10.6153C114.518 11.3145 115.214 12.0695 115.796 12.8377C116.572 13.8643 117.142 14.9035 117.529 15.8595C117.918 16.8155 118.128 17.6875 118.208 18.4126C118.29 19.1377 118.249 19.7161 118.125 20.1245C118.001 20.5329 117.802 20.7719 117.554 20.8501L117.55 20.85Z" fill="#4B4343" fill-opacity="0.9999"/>
<path d="M68.06 14.95C67.9166 15.1538 67.605 15.2338 67.143 15.2253C66.6825 15.2173 66.0716 15.1211 65.3215 15.0061C64.5728 14.891 63.682 14.7576 62.681 14.6882C61.6786 14.6188 60.5631 14.6143 59.3993 14.7585C58.2604 14.8971 57.0566 15.1808 55.8735 15.6337C54.6904 16.0865 53.5281 16.708 52.487 17.4864C51.2998 18.3677 50.2436 19.4817 49.3956 20.7017C48.5462 21.9217 47.9078 23.2435 47.4941 24.5407C47.0846 25.8089 46.8819 27.0799 46.7951 28.2405C46.7124 29.4011 46.7398 30.4519 46.7812 31.3371C46.8226 32.2224 46.8777 32.9448 46.8502 33.4802C46.8227 34.0156 46.7124 34.3659 46.4766 34.4995C46.2394 34.6331 45.8713 34.5493 45.4052 34.1977C44.9377 33.8462 44.371 33.2236 43.825 32.2944C43.2803 31.3651 42.7578 30.1257 42.442 28.613C42.1276 27.1003 42.0242 25.3134 42.3179 23.3998C42.6199 21.4455 43.3327 19.4053 44.4717 17.5322C45.6093 15.659 47.1688 13.9607 49.0095 12.6553C50.6214 11.5181 52.407 10.7049 54.1913 10.2283C55.9755 9.75159 57.7543 9.6102 59.3758 9.72948C61.0304 9.85399 62.4962 10.2437 63.7054 10.742C64.9133 11.2403 65.8661 11.8445 66.5665 12.4203C67.2656 12.9961 67.7137 13.5424 67.9509 13.9798C68.1867 14.4172 68.2142 14.746 68.075 14.9499L68.06 14.95Z" fill="#4B4343" fill-opacity="0.9999"/>
<path d="M93.52 21.37C93.2759 21.3318 93.0774 21.0389 92.8871 20.5354C92.6968 20.0319 92.5093 19.3161 92.2349 18.4419C91.9619 17.5677 91.5965 16.5326 91.0505 15.4374C90.5031 14.3421 89.7723 13.1857 88.8016 12.1473C87.8598 11.1281 86.6657 10.1983 85.2924 9.48717C83.9204 8.77604 82.3734 8.28592 80.807 8.14372C78.9952 7.96097 77.0758 8.26485 75.3343 8.93022C73.5928 9.5956 72.043 10.618 70.8682 11.8274C69.71 12.9948 68.8647 14.3772 68.269 15.7053C67.6747 17.0334 67.3272 18.3076 67.0997 19.3848C66.8722 20.462 66.7591 21.3472 66.6226 21.9778C66.4847 22.6084 66.3192 22.9883 66.0559 23.0637C65.7911 23.1391 65.4285 22.9082 65.0342 22.3115C64.6384 21.7148 64.2165 20.7457 63.9711 19.407C63.727 18.0683 63.6677 16.3544 64.0538 14.4298C64.444 12.5052 65.292 10.3714 66.7881 8.39018C67.5616 7.38038 68.4896 6.43558 69.5472 5.60478C70.6048 4.77398 71.7934 4.05758 73.0743 3.49718C74.3566 2.93676 75.7286 2.53273 77.1433 2.31401C78.5566 2.09528 80.0113 2.06211 81.4495 2.22661C83.9025 2.52327 86.2052 3.3881 88.1425 4.6154C90.0784 5.8427 91.6462 7.4263 92.77 9.106C93.9145 10.8305 94.5722 12.6019 94.8962 14.1845C95.2216 15.7671 95.2175 17.1612 95.0699 18.2606C94.921 19.3601 94.6328 20.1684 94.3419 20.6796C94.0509 21.1908 93.76 21.4083 93.5159 21.3701L93.52 21.37Z" fill="#4B4343" fill-opacity="0.9999"/>
<path d="M308.55 11.33C308.4 11.6319 307.867 11.7303 307.01 11.7108C306.151 11.6913 304.961 11.5602 303.494 11.4914C302.028 11.4227 300.282 11.4217 298.393 11.6596C296.504 11.8973 294.476 12.3772 292.536 13.1993C291.351 13.6943 290.19 14.3192 289.09 15.0505C287.99 15.7818 286.953 16.6188 286.011 17.5223C285.068 18.4258 284.223 19.3952 283.488 20.3846C282.754 21.374 282.132 22.3832 281.618 23.3678C281.013 24.5186 280.544 25.6388 280.166 26.656C279.788 27.6732 279.5 28.5877 279.252 29.3488C279.004 30.1098 278.791 30.7179 278.576 31.1378C278.361 31.5577 278.142 31.7896 277.903 31.8068C277.664 31.824 277.407 31.6262 277.156 31.1968C276.905 30.7675 276.662 30.1055 276.493 29.2171C276.323 28.3287 276.227 27.2128 276.293 25.9141C276.362 24.6154 276.587 23.1339 277.062 21.5618C277.476 20.2062 278.072 18.7953 278.866 17.41C279.66 16.0247 280.653 14.6662 281.819 13.4165C282.987 12.1669 284.33 11.0272 285.792 10.064C287.254 9.10083 288.834 8.31483 290.455 7.74073C291.787 7.27387 293.133 6.95421 294.443 6.76704C295.753 6.57987 297.028 6.5249 298.229 6.57459C300.631 6.67399 302.724 7.19288 304.34 7.83839C305.956 8.48387 307.104 9.24552 307.788 9.88252C308.472 10.5195 308.702 11.0282 308.55 11.3301L308.55 11.33Z" fill="#4B4343" fill-opacity="0.9999"/>
<path d="M266.84 28.93C266.56 29.1866 265.944 29.0567 265.017 28.6519C264.091 28.247 262.845 27.5731 261.289 26.84C259.732 26.107 257.858 25.3207 255.758 24.7047C253.66 24.0887 251.339 23.6495 248.992 23.5351C246.495 23.4048 243.947 23.6508 241.603 24.1465C239.259 24.6421 237.128 25.3795 235.357 26.1059C233.585 26.8323 232.164 27.5397 231.118 27.9691C230.07 28.3986 229.385 28.5414 229.098 28.2576C228.955 28.1157 228.912 27.8698 228.988 27.5234C229.057 27.177 229.246 26.73 229.564 26.2026C229.881 25.6752 230.331 25.0676 230.926 24.4161C231.521 23.7646 232.261 23.0697 233.15 22.38C234.038 21.6903 235.077 21.0062 236.247 20.3814C237.419 19.7567 238.724 19.1918 240.13 18.7359C241.535 18.2801 243.04 17.9338 244.595 17.7319C246.149 17.53 247.751 17.473 249.344 17.5733C250.836 17.6715 252.304 17.9061 253.705 18.2557C255.106 18.6053 256.437 19.0692 257.664 19.6112C258.891 20.1532 260.014 20.7727 261.012 21.4258C262.009 22.0789 262.882 22.7651 263.623 23.44C265.107 24.7899 266.06 26.083 266.56 27.0545C267.062 28.026 267.123 28.6733 266.845 28.93H266.84Z" fill="#4B4343" fill-opacity="0.9999"/>
<path d="M304.99 39.7C304.722 39.6448 304.494 39.3725 304.346 38.8687C304.199 38.365 304.135 37.6285 304.236 36.6944C304.332 35.7603 304.602 34.6283 305.121 33.398C305.639 32.1678 306.413 30.8412 307.479 29.5731C308.575 28.2745 309.966 27.0574 311.577 26.0809C313.187 25.1043 315.012 24.3721 316.892 23.9705C318.133 23.7105 319.381 23.597 320.586 23.6141C321.791 23.6312 322.955 23.7787 324.036 24.0247C325.116 24.2707 326.114 24.6148 327.005 25.0158C327.896 25.4169 328.679 25.8744 329.346 26.3457C330.678 27.2884 331.534 28.2745 331.981 29.0456C332.427 29.8167 332.473 30.3703 332.228 30.6454C331.984 30.9205 331.45 30.9226 330.673 30.7597C329.895 30.5969 328.863 30.2756 327.605 29.9751C326.346 29.6747 324.852 29.3992 323.234 29.3183C321.615 29.2374 319.875 29.3541 318.212 29.7758C316.925 30.0934 315.657 30.5792 314.482 31.1872C313.307 31.7952 312.228 32.5239 311.287 33.3026C310.37 34.0606 309.575 34.8751 308.893 35.6519C308.212 36.4287 307.647 37.1673 307.163 37.7911C306.679 38.4148 306.278 38.9238 305.922 39.2589C305.568 39.594 305.259 39.7551 304.99 39.6999L304.99 39.7Z" fill="#4B4343" fill-opacity="0.9999"/>
<path d="M325.87 34.72C325.674 34.6442 325.52 34.4551 325.432 34.1423C325.335 33.8294 325.321 33.392 325.404 32.8445C325.487 32.297 325.688 31.6388 326.048 30.9192C326.406 30.1996 326.929 29.4188 327.654 28.6628C328.327 27.9628 329.167 27.2933 330.161 26.7378C331.154 26.1823 332.302 25.7419 333.556 25.4951C334.649 25.2816 335.805 25.2185 336.964 25.3269C338.125 25.4353 339.291 25.7154 340.398 26.1643C341.505 26.6154 342.535 27.2276 343.442 27.9596C344.348 28.6915 345.133 29.5424 345.766 30.4572C346.488 31.504 347.003 32.615 347.327 33.7009C347.651 34.7869 347.786 35.8469 347.783 36.8131C347.783 37.8558 347.609 38.7761 347.368 39.5396C347.127 40.3031 346.812 40.9105 346.495 41.3623C346.178 41.8141 345.86 42.1114 345.58 42.274C345.298 42.4366 345.057 42.4655 344.864 42.3846C344.672 42.3037 344.526 42.1134 344.413 41.8333C344.303 41.5533 344.22 41.1832 344.139 40.7399C344.056 40.2966 343.977 39.7795 343.862 39.211C343.737 38.6426 343.593 38.0223 343.368 37.3884C343.161 36.8008 342.892 36.1925 342.549 35.5968C342.206 35.0011 341.789 34.4183 341.302 33.8939C340.453 32.9744 339.344 32.188 338.148 31.7043C336.952 31.2172 335.611 31.0091 334.36 31.077C333.643 31.114 332.935 31.2429 332.272 31.4327C331.609 31.6225 330.989 31.873 330.43 32.153C329.826 32.4538 329.283 32.7951 328.803 33.1245C328.323 33.4539 327.904 33.7715 327.537 34.0358C327.171 34.3002 326.855 34.5112 326.578 34.6352C326.302 34.7592 326.065 34.796 325.869 34.7201L325.87 34.72Z" fill="#4B4343" fill-opacity="0.9999"/>
<path d="M361.25 45.83C361.153 45.6294 361.181 45.3661 361.374 45.0516C361.557 44.7372 361.895 44.3714 362.408 44.0026C362.923 43.6339 363.613 43.263 364.482 42.9716C365.349 42.6801 366.394 42.4696 367.576 42.4387C368.689 42.411 369.909 42.5444 371.156 42.8928C372.402 43.2411 373.672 43.8054 374.861 44.6002C375.775 45.2165 376.623 45.9579 377.37 46.798C378.116 47.6381 378.76 48.5766 379.277 49.5743C379.793 50.5721 380.182 51.6285 380.433 52.6984C380.684 53.7682 380.797 54.8509 380.78 55.9017C380.739 57.8544 380.244 59.6101 379.558 61.0217C378.872 62.4332 378 63.5028 377.18 64.2365C376.358 64.9702 375.593 65.3748 375.015 65.5396C374.439 65.7043 374.047 65.6346 373.856 65.4083C373.664 65.1818 373.668 64.7989 373.8 64.2803C373.924 63.7617 374.18 63.1035 374.444 62.3017C374.709 61.4999 374.986 60.5504 375.159 59.4925C375.33 58.4346 375.396 57.2685 375.227 56.1092C375.07 54.8606 374.643 53.5599 373.991 52.3657C373.337 51.1715 372.463 50.0931 371.466 49.2776C370.805 48.7316 370.08 48.2743 369.344 47.908C368.608 47.5416 367.859 47.2664 367.142 47.0683C366.379 46.8565 365.64 46.7296 364.967 46.6437C364.294 46.5578 363.685 46.5127 363.167 46.4636C362.647 46.4145 362.217 46.3609 361.89 46.2651C361.564 46.1693 361.344 46.0306 361.25 45.83L361.25 45.83Z" fill="#4B4343" fill-opacity="0.9999"/>
<path d="M356.54 40.86C354.292 39.8612 351.908 39.441 349.704 39.5288C347.597 39.6187 345.699 40.1571 344.133 40.8778C342.568 41.5984 341.331 42.4979 340.421 43.3456C339.511 44.1932 338.921 44.9874 338.584 45.5694C338.247 46.1514 338.154 46.5204 338.27 46.608C338.38 46.6956 338.699 46.4978 339.208 46.1157C339.717 45.7336 340.427 45.1686 341.375 44.5686C342.323 43.9685 343.514 43.3338 344.931 42.8456C346.349 42.3574 347.995 42.0164 349.755 42.029C351.596 42.036 353.576 42.4397 355.465 43.2794C357.471 44.1715 359.181 45.4703 360.452 46.9334C361.58 48.2248 362.382 49.6485 362.937 50.9964C363.491 52.3443 363.797 53.617 363.978 54.6906C364.157 55.7642 364.212 56.642 364.269 57.2555C364.324 57.869 364.393 58.2219 364.531 58.2482C364.671 58.2745 364.878 57.9699 365.079 57.3511C365.282 56.7322 365.474 55.7951 365.504 54.5907C365.532 53.3863 365.394 51.9117 364.92 50.307C364.447 48.7023 363.634 46.9677 362.367 45.3541C361.649 44.444 360.793 43.5851 359.814 42.8217C358.835 42.0583 357.733 41.3905 356.54 40.86H356.54Z" fill="#4B4343" fill-opacity="0.9999"/>
<path d="M377.46 61.35C377.501 61.1257 377.685 60.9249 378.024 60.7764C378.363 60.628 378.861 60.5326 379.503 60.5507C380.147 60.5689 380.936 60.7024 381.812 61.0253C382.687 61.3483 383.65 61.8628 384.586 62.6264C385.474 63.3537 386.322 64.2948 387.016 65.4276C387.71 66.5604 388.247 67.8844 388.528 69.3226C388.724 70.3578 388.785 71.4274 388.705 72.487C388.622 73.5467 388.407 74.596 388.061 75.5919C387.713 76.5878 387.24 77.5298 386.668 78.3822C386.096 79.2346 385.423 79.9972 384.689 80.6474C383.295 81.8594 381.754 82.6074 380.339 82.9918C378.923 83.3762 377.636 83.4045 376.623 83.2594C375.609 83.1143 374.868 82.8026 374.41 82.4787C373.952 82.1548 373.774 81.8211 373.822 81.5341C373.864 81.247 374.142 81.0042 374.575 80.7666C375.01 80.529 375.605 80.2921 376.299 79.9783C376.993 79.6644 377.788 79.2704 378.584 78.7418C379.379 78.2131 380.175 77.5497 380.812 76.7446C381.501 75.9013 382.056 74.8471 382.403 73.7114C382.751 72.5758 382.887 71.3682 382.766 70.2523C382.683 69.4544 382.487 68.6655 382.209 67.9331C381.93 67.2007 381.573 66.5259 381.179 65.9316C380.766 65.3044 380.3 64.7533 379.848 64.2746C379.397 63.7959 378.962 63.3892 378.589 63.0341C378.218 62.679 377.912 62.3744 377.712 62.0985C377.511 61.8227 377.416 61.5743 377.46 61.3499L377.46 61.35Z" fill="#4B4343" fill-opacity="0.9999"/>
<path d="M384.46 93.7699C384.743 92.7909 384.883 91.7952 384.889 90.8297C384.889 89.2124 384.517 87.7343 383.975 86.516C383.433 85.2977 382.725 84.3376 382.048 83.6436C381.371 82.9495 380.726 82.5167 380.246 82.2879C379.766 82.0592 379.453 82.0285 379.358 82.1565C379.262 82.2846 379.386 82.5597 379.655 82.9727C379.917 83.3857 380.311 83.9426 380.721 84.6646C381.13 85.3865 381.555 86.2772 381.864 87.3143C382.172 88.3513 382.367 89.5347 382.302 90.7705C382.275 91.5084 382.142 92.271 381.92 93.0314C381.584 94.1825 381.056 95.2372 380.431 96.134C379.808 97.0308 379.091 97.7686 378.368 98.3433C377.247 99.2384 376.13 99.7738 375.326 100.145C374.925 100.331 374.6 100.477 374.376 100.608C374.153 100.739 374.033 100.856 374.043 100.966C374.043 101.077 374.19 101.175 374.454 101.247C374.717 101.318 375.104 101.362 375.599 101.343C376.093 101.325 376.696 101.243 377.371 101.055C378.048 100.867 378.797 100.573 379.564 100.132C380.56 99.5549 381.57 98.728 382.438 97.6523C383.306 96.5766 384.03 95.2521 384.46 93.77L384.46 93.7699Z" fill="#4B4343" fill-opacity="0.9999"/>
<path d="M373.37 97.14C373.62 97.0494 373.937 97.129 374.294 97.4297C374.65 97.7299 375.044 98.2535 375.368 99.0215C375.692 99.7895 375.943 100.805 375.964 102.011C375.977 103.217 375.766 104.613 375.169 106.039C374.56 107.47 373.581 108.871 372.279 110.017C370.978 111.163 369.355 112.048 367.583 112.51C365.894 112.939 364.151 112.965 362.551 112.65C360.95 112.334 359.499 111.681 358.317 110.844C357.13 109.994 356.257 108.991 355.66 108.025C355.064 107.059 354.74 106.132 354.599 105.362C354.457 104.591 354.489 103.976 354.613 103.553C354.737 103.13 354.946 102.897 355.194 102.832C355.442 102.766 355.73 102.867 356.061 103.084C356.392 103.301 356.768 103.634 357.219 104.024C357.669 104.413 358.194 104.859 358.808 105.287C359.423 105.714 360.126 106.123 360.897 106.416C361.658 106.713 362.517 106.911 363.408 106.973C364.298 107.036 365.218 106.962 366.066 106.728C366.955 106.493 367.827 106.062 368.596 105.515C369.366 104.969 370.027 104.309 370.535 103.61C371.046 102.922 371.428 102.157 371.715 101.426C372.002 100.694 372.195 99.9944 372.352 99.3877C372.509 98.781 372.632 98.2652 372.784 97.8779C372.934 97.4906 373.117 97.2304 373.366 97.1398L373.37 97.14Z" fill="#4B4343" fill-opacity="0.9999"/>
<path d="M361.94 94.91C362.205 94.9839 362.405 95.3175 362.489 95.9188C362.571 96.52 362.544 97.3904 362.303 98.4776C362.063 99.5648 361.613 100.869 360.864 102.263C360.114 103.658 359.064 105.14 357.679 106.525C356.255 107.947 354.491 109.244 352.499 110.239C350.508 111.235 348.292 111.924 346.046 112.222C344.137 112.47 342.24 112.431 340.468 112.162C338.698 111.894 337.056 111.397 335.62 110.773C334.148 110.136 332.89 109.367 331.875 108.584C330.86 107.802 330.088 107.009 329.537 106.304C328.985 105.599 328.654 104.983 328.504 104.512C328.353 104.041 328.38 103.715 328.559 103.542C328.734 103.37 329.055 103.351 329.51 103.455C329.964 103.558 330.554 103.784 331.278 104.075C332.003 104.367 332.865 104.723 333.859 105.075C334.853 105.427 335.98 105.775 337.211 106.048C338.412 106.31 339.715 106.502 341.067 106.566C342.418 106.63 343.816 106.566 345.191 106.337C346.833 106.07 348.468 105.58 349.992 104.918C351.514 104.256 352.922 103.424 354.148 102.512C355.341 101.628 356.375 100.661 357.25 99.7335C358.126 98.8061 358.846 97.9189 359.447 97.171C360.047 96.423 360.529 95.8143 360.936 95.4175C361.343 95.0206 361.675 94.8361 361.941 94.91L361.94 94.91Z" fill="#4B4343" fill-opacity="0.9999"/>
<path d="M338.08 108.67C338.263 108.908 338.204 109.346 337.843 109.956C337.488 110.565 336.842 111.346 335.872 112.194C334.904 113.043 333.614 113.957 332.023 114.788C330.431 115.619 328.541 116.363 326.455 116.88C324.187 117.446 321.684 117.738 319.168 117.669C316.651 117.6 314.126 117.168 311.822 116.432C309.593 115.715 307.589 114.733 305.926 113.665C304.262 112.597 302.937 111.449 301.964 110.405C300.99 109.361 300.364 108.423 300.041 107.713C299.717 107.002 299.693 106.519 299.917 106.294C300.142 106.068 300.615 106.099 301.316 106.335C302.015 106.571 302.944 107.01 304.093 107.548C305.241 108.085 306.613 108.719 308.175 109.322C309.738 109.925 311.49 110.495 313.356 110.918C315.265 111.354 317.306 111.621 319.355 111.696C321.404 111.77 323.456 111.652 325.378 111.395C327.144 111.155 328.806 110.8 330.288 110.412C331.77 110.025 333.076 109.608 334.17 109.26C335.263 108.911 336.147 108.634 336.805 108.514C337.462 108.394 337.895 108.432 338.08 108.67V108.67Z" fill="#4B4343" fill-opacity="0.9999"/>
<path d="M38.44 64.83C38.2732 65.0702 37.8871 65.1499 37.3093 65.1224C36.7329 65.0949 35.9635 64.9623 35.0218 64.8246C34.08 64.6869 32.9632 64.546 31.7236 64.5132C30.484 64.4804 29.1203 64.5573 27.7428 64.8414C26.2757 65.138 24.7631 65.678 23.347 66.4433C21.9309 67.2086 20.6196 68.1959 19.5372 69.3194C18.3679 70.5164 17.4455 71.9125 16.7505 73.2832C16.0555 74.654 15.5867 75.9959 15.2461 77.15C14.9041 78.3041 14.6863 79.2734 14.456 79.9653C14.2257 80.6572 13.9789 81.0744 13.6508 81.1404C13.3212 81.2064 12.9089 80.9177 12.4994 80.2168C12.0912 79.5158 11.6927 78.3954 11.5273 76.9021C11.3632 75.4088 11.4446 73.5403 11.9988 71.528C12.276 70.5219 12.6703 69.483 13.197 68.4556C13.7224 67.4282 14.3814 66.4127 15.1715 65.4571C16.64 63.6985 18.5249 62.2011 20.6015 61.1539C22.6781 60.1067 24.9353 59.513 27.0794 59.3715C29.0939 59.2442 30.9623 59.5096 32.5328 59.9791C34.1047 60.4487 35.3788 61.1161 36.3219 61.7846C37.2651 62.453 37.8815 63.1188 38.2152 63.653C38.5502 64.1873 38.6053 64.5897 38.4399 64.8299L38.44 64.83Z" fill="#4B4343" fill-opacity="0.9999"/>
<path d="M22.17 84.48C22.0156 84.5889 21.7853 84.5867 21.4847 84.5005C21.1841 84.4143 20.8132 84.2447 20.3609 84.0346C19.91 83.8245 19.3764 83.574 18.7587 83.3399C18.141 83.1057 17.4377 82.8878 16.6683 82.7592C15.9733 82.6408 15.2122 82.5927 14.4221 82.65C13.632 82.7074 12.813 82.8701 12.0339 83.1662C10.7171 83.6606 9.42789 84.5691 8.52469 85.7493C7.6629 86.8644 7.0934 88.2958 6.9597 89.7074C6.84939 90.8992 7.02869 92.1394 7.43678 93.2283C7.88491 94.4147 8.63358 95.4761 9.49128 96.285C10.0084 96.7757 10.5806 97.1866 11.1583 97.5206C11.736 97.8546 12.3207 98.1116 12.8805 98.3065C13.5092 98.5265 14.1146 98.6698 14.662 98.775C15.2094 98.8802 15.6989 98.9476 16.1126 99.0131C16.5248 99.0786 16.8641 99.1427 17.1136 99.2337C17.3645 99.3247 17.5272 99.4429 17.5893 99.6022C17.6445 99.7615 17.6031 99.9622 17.4487 100.196C17.2873 100.431 17.006 100.698 16.5841 100.966C16.1635 101.233 15.6024 101.5 14.8978 101.706C14.1918 101.912 13.3411 102.056 12.3676 102.056C11.5017 102.056 10.5447 101.941 9.54779 101.663C8.54949 101.384 7.51119 100.94 6.50459 100.295C5.67313 99.7608 4.8734 99.096 4.155 98.3046C3.43523 97.5132 2.79539 96.5952 2.28389 95.5692C1.34626 93.6825 0.876094 91.4794 1.02639 89.2449C1.12289 87.9136 1.42626 86.601 1.92955 85.3732C2.43283 84.1454 3.13194 83.0032 3.98684 82.0028C4.89137 80.9505 5.94895 80.0812 7.07965 79.4152C8.21165 78.7492 9.41684 78.2865 10.6191 78.022C12.0462 77.7122 13.4347 77.6873 14.6964 77.8623C15.958 78.0373 17.0929 78.4109 18.0567 78.8872C19.1198 79.4151 19.9568 80.0573 20.5924 80.6905C21.2281 81.3237 21.6624 81.9477 21.9437 82.4859C22.225 83.0242 22.3533 83.4773 22.3781 83.8139C22.4056 84.1504 22.3229 84.3712 22.1699 84.4802L22.17 84.48Z" fill="#4B4343" fill-opacity="0.9999"/>
<path d="M18.93 112.62C18.2019 112.272 17.5291 111.851 16.9306 111.372C16.0178 110.646 15.258 109.786 14.6624 108.888C14.0653 107.991 13.631 107.057 13.3387 106.157C13.034 105.223 12.8781 104.319 12.8051 103.507C12.7361 102.695 12.7499 101.975 12.7776 101.376C12.8051 100.777 12.8466 100.298 12.8603 99.9585C12.8603 99.6185 12.8327 99.4154 12.7362 99.3745C12.6259 99.3335 12.4632 99.4579 12.2536 99.7493C12.0454 100.041 11.7972 100.5 11.5738 101.128C11.3504 101.756 11.1546 102.554 11.0705 103.497C10.9878 104.44 11.0153 105.53 11.2594 106.7C11.4924 107.826 11.9213 109.017 12.5859 110.171C13.2505 111.325 14.1509 112.442 15.2843 113.393C16.0358 114.02 16.881 114.566 17.798 115.006C19.0872 115.624 20.4454 115.997 21.7719 116.145C23.0984 116.293 24.3931 116.217 25.5789 115.964C27.1618 115.623 28.5159 114.981 29.5955 114.252C30.6738 113.524 31.4804 112.71 32.0499 111.977C32.6194 111.245 32.9558 110.592 33.1254 110.123C33.2964 109.653 33.3074 109.365 33.1943 109.298C33.084 109.231 32.8482 109.388 32.4952 109.695C32.1422 110.002 31.6638 110.461 31.0212 110.971C30.3787 111.481 29.5693 112.043 28.5848 112.529C27.6003 113.016 26.4379 113.427 25.1556 113.603C24.1959 113.738 23.1604 113.741 22.1028 113.584C21.0466 113.426 19.9669 113.109 18.9424 112.62L18.93 112.62Z" fill="#4B4343" fill-opacity="0.9999"/>
<path d="M30.09 102.34C30.2817 102.28 30.5299 102.411 30.8401 102.704C31.1517 102.998 31.5282 103.454 31.9997 104.027C32.4713 104.601 33.0421 105.292 33.7481 106.033C34.4527 106.774 35.2952 107.566 36.2935 108.312C37.2104 108.998 38.2667 109.649 39.4456 110.196C40.6245 110.742 41.9262 111.182 43.2995 111.443C44.6191 111.695 46.02 111.782 47.4306 111.681C48.8426 111.579 50.2628 111.29 51.6072 110.807C52.9323 110.333 54.2036 109.664 55.3563 108.85C56.5077 108.037 57.5404 107.079 58.405 106.036C59.3923 104.849 60.1768 103.535 60.7628 102.208C61.3474 100.882 61.7349 99.5448 61.9597 98.2817C62.2024 96.9265 62.263 95.6434 62.2424 94.5047C62.2148 93.3659 62.1183 92.3701 62.0231 91.5454C61.9266 90.7206 61.8452 90.0651 61.8411 89.5889C61.8411 89.1128 61.9101 88.8149 62.099 88.7119C62.2865 88.6089 62.5857 88.7009 62.9787 89.0198C63.3716 89.3386 63.8584 89.8857 64.3589 90.6925C64.8608 91.4994 65.3779 92.5685 65.7777 93.8997C66.1789 95.231 66.463 96.8262 66.4699 98.6213C66.4699 100.294 66.2313 102.124 65.6605 103.985C65.0882 105.847 64.1851 107.739 62.9221 109.493C61.8107 111.032 60.436 112.443 58.8558 113.63C57.2756 114.817 55.4914 115.777 53.5954 116.441C51.6733 117.111 49.6643 117.466 47.6925 117.516C45.7207 117.567 43.7862 117.313 41.995 116.808C40.1322 116.281 38.4472 115.492 36.9939 114.56C35.542 113.629 34.3217 112.556 33.3385 111.46C32.2699 110.266 31.4908 109.054 30.9365 107.949C30.3836 106.844 30.054 105.845 29.8734 105.021C29.6928 104.198 29.6583 103.549 29.7093 103.1C29.7645 102.651 29.8968 102.4 30.0899 102.34L30.09 102.34Z" fill="#4B4343" fill-opacity="0.9999"/>
<path d="M77.09 116.22C78.1696 116.22 79.23 116.11 80.2476 115.902C81.8512 115.571 83.3321 115 84.6296 114.288C85.9285 113.575 87.0426 112.723 87.9596 111.828C88.9096 110.9 89.6432 109.933 90.1961 109.029C90.7476 108.126 91.12 107.285 91.3626 106.577C91.6067 105.87 91.7225 105.295 91.757 104.894C91.7984 104.493 91.7569 104.266 91.6328 104.232C91.5225 104.198 91.3653 104.359 91.1406 104.674C90.9172 104.989 90.6291 105.459 90.2444 106.034C89.861 106.609 89.3798 107.289 88.7675 108.011C88.1553 108.732 87.4108 109.495 86.5132 110.214C85.65 110.908 84.6392 111.563 83.5003 112.108C82.36 112.653 81.09 113.087 79.7388 113.336C78.8839 113.494 77.9945 113.576 77.0859 113.575C75.7498 113.573 74.4468 113.393 73.2321 113.075C72.0187 112.756 70.8935 112.301 69.8925 111.757C68.5674 111.039 67.449 110.165 66.5349 109.29C65.6221 108.414 64.912 107.538 64.3604 106.78C63.8089 106.021 63.4118 105.38 63.114 104.943C62.8161 104.506 62.6134 104.274 62.4879 104.315C62.3639 104.356 62.3211 104.668 62.4052 105.217C62.4879 105.766 62.6962 106.551 63.1126 107.491C63.529 108.432 64.1578 109.527 65.0692 110.638C65.9806 111.749 67.1775 112.875 68.6791 113.822C69.8153 114.536 71.1169 115.139 72.5372 115.56C73.9588 115.981 75.5004 116.22 77.0874 116.22L77.09 116.22Z" fill="#4B4343" fill-opacity="0.9999"/>
<path d="M71.09 52.59C70.8156 52.914 70.2668 52.9928 69.5098 52.9115C68.7514 52.8301 67.7821 52.5951 66.6487 52.3409C65.5153 52.0867 64.2164 51.8169 62.843 51.6399C61.4696 51.4628 60.0246 51.3811 58.6264 51.4343C57.4406 51.4755 56.2713 51.6074 55.1861 51.7782C54.0996 51.9489 53.0971 52.1573 52.2257 52.3266C51.3529 52.4958 50.6097 52.6239 50.025 52.6326C49.4417 52.6406 49.017 52.5278 48.7937 52.2474C48.5717 51.967 48.551 51.5175 48.7937 50.9294C49.0336 50.3413 49.5396 49.6155 50.338 48.8711C51.1377 48.1266 52.2353 47.3685 53.577 46.7605C54.92 46.1524 56.5043 45.701 58.1783 45.5248C59.1738 45.4226 60.1887 45.4173 61.1856 45.5074C62.1811 45.5976 63.156 45.783 64.0716 46.0465C64.9885 46.3099 65.8476 46.6509 66.6197 47.0402C67.3919 47.4296 68.0785 47.8668 68.6659 48.3176C69.8393 49.2193 70.6032 50.166 70.9824 50.9286C71.3629 51.6913 71.3657 52.266 71.0927 52.59L71.09 52.59Z" fill="#4B4343" fill-opacity="0.9999"/>
<path d="M34.94 38.47C34.7704 39.8519 34.8297 41.2133 35.0503 42.4752C35.2806 43.7371 35.6832 44.899 36.1892 45.9137C36.7476 47.0319 37.4233 47.9625 38.1031 48.7037C38.7815 49.445 39.464 49.9982 40.0625 50.3922C40.6609 50.7863 41.1739 51.0229 41.5475 51.1383C41.9198 51.2537 42.1514 51.2499 42.2176 51.1423C42.2866 51.0354 42.1762 50.8328 41.9556 50.5389C41.7309 50.245 41.382 49.8579 40.9697 49.3609C40.5575 48.8639 40.0817 48.2556 39.6143 47.524C39.1455 46.7925 38.685 45.937 38.3154 44.9676C37.9804 44.0887 37.7198 43.111 37.5805 42.0672C37.4399 41.0234 37.4192 39.914 37.5529 38.7937C37.5805 38.5839 37.6081 38.3761 37.6494 38.1707C37.8466 37.0494 38.1955 35.99 38.6367 35.0332C39.0793 34.0763 39.6143 33.2225 40.1851 32.4872C40.7684 31.7342 41.3902 31.1009 41.9818 30.5735C42.5733 30.0461 43.1345 29.6242 43.6102 29.2815C44.0859 28.9388 44.4775 28.6743 44.7381 28.4627C44.9987 28.2511 45.1297 28.091 45.0938 27.9774C45.0524 27.8638 44.8553 27.8037 44.5023 27.8148C44.1507 27.8258 43.6474 27.9095 43.0311 28.1062C42.4148 28.303 41.6839 28.6143 40.9021 29.0839C40.1203 29.5535 39.2874 30.1825 38.4919 30.9993C37.7156 31.7978 36.982 32.7718 36.3795 33.9017C35.7769 35.0316 35.3054 36.3172 35.0489 37.7002C35.0075 37.9539 34.9662 38.2105 34.9248 38.4692L34.94 38.47Z" fill="#4B4343" fill-opacity="0.9999"/>
<path d="M320.09 0.789977C319.966 0.794977 319.847 0.80238 319.727 0.81018C317.771 0.94724 315.924 1.48232 314.318 2.26807C312.71 3.05383 311.341 4.08836 310.259 5.21466C309.158 6.36296 308.363 7.58987 307.808 8.73657C307.253 9.88337 306.937 10.9501 306.77 11.8381C306.602 12.7261 306.578 13.4364 306.618 13.9198C306.66 14.4031 306.756 14.6609 306.876 14.6729C307 14.6853 307.133 14.4517 307.311 14.0253C307.489 13.599 307.712 12.9784 308.043 12.225C308.375 11.4716 308.818 10.584 309.434 9.65173C310.051 8.71938 310.842 7.74158 311.846 6.85058C312.83 5.97409 314.027 5.17802 315.395 4.57312C316.764 3.96821 318.302 3.55509 319.908 3.44879C320.004 3.44179 320.105 3.43643 320.204 3.43213C321.807 3.36113 323.377 3.59828 324.803 4.04498C326.229 4.49169 327.507 5.14759 328.585 5.91089C329.713 6.70712 330.631 7.62333 331.362 8.51483C332.093 9.40635 332.638 10.2737 333.051 11.0157C333.466 11.7577 333.754 12.3756 333.976 12.7983C334.198 13.2209 334.358 13.4493 334.48 13.426C334.604 13.4027 334.677 13.1279 334.669 12.6263C334.669 12.1248 334.572 11.3951 334.302 10.4985C334.038 9.60195 333.601 8.53742 332.906 7.41992C332.211 6.30252 331.256 5.13233 329.992 4.08563C328.782 3.08641 327.301 2.21596 325.615 1.62036C323.93 1.0248 322.04 0.705826 320.09 0.789916L320.09 0.789977Z" fill="#4B4343" fill-opacity="0.9999"/>
<path d="M330.97 18.62C330.727 18.4959 330.584 18.1612 330.603 17.6105C330.617 17.0597 330.806 16.2908 331.254 15.385C331.702 14.4792 332.421 13.4372 333.478 12.4394C334.537 11.4416 335.938 10.4923 337.651 9.8344C339.403 9.17007 341.43 8.84022 343.5 8.97984C345.569 9.11945 347.673 9.73079 349.542 10.7851C351.168 11.7115 352.563 12.9424 353.641 14.3131C354.72 15.6838 355.481 17.1902 355.936 18.6561C356.396 20.1539 356.534 21.5769 356.476 22.8027C356.421 24.0286 356.17 25.0578 355.864 25.8479C355.556 26.6381 355.191 27.1916 354.86 27.5231C354.528 27.8547 354.23 27.9665 353.991 27.8945C353.753 27.8225 353.574 27.5676 353.428 27.1634C353.28 26.7592 353.163 26.2048 353.018 25.5334C352.872 24.8621 352.695 24.0724 352.425 23.2176C352.155 22.3628 351.789 21.4424 351.278 20.5483C350.782 19.6709 350.135 18.7989 349.352 18.0118C348.57 17.2246 347.653 16.524 346.656 15.9983C345.525 15.3927 344.24 14.9978 342.949 14.8215C341.66 14.6452 340.371 14.6885 339.202 14.9164C338.055 15.1313 336.986 15.53 336.053 15.98C335.118 16.43 334.316 16.931 333.648 17.3719C332.978 17.8128 332.437 18.1938 331.996 18.4269C331.555 18.66 331.213 18.7442 330.97 18.62V18.62Z" fill="#4B4343" fill-opacity="0.9999"/>
<path d="M353.78 23.72C353.67 23.4826 353.739 23.153 354.023 22.7559C354.314 22.3589 354.831 21.8945 355.603 21.4589C356.374 21.0233 357.404 20.619 358.658 20.3936C359.915 20.1682 361.397 20.126 362.985 20.4156C364.579 20.7113 366.241 21.3402 367.771 22.3186C369.301 23.297 370.693 24.6241 371.767 26.1977C372.808 27.733 373.516 29.455 373.871 31.1732C374.227 32.8914 374.233 34.601 373.968 36.1371C373.7 37.6792 373.174 39.0133 372.559 40.0826C371.944 41.1519 371.243 41.9585 370.599 42.5219C369.955 43.0853 369.367 43.4088 368.91 43.5472C368.454 43.6856 368.13 43.6412 367.945 43.4607C367.759 43.2802 367.712 42.9638 367.762 42.5306C367.817 42.0975 367.958 41.5459 368.13 40.8802C368.302 40.2146 368.502 39.4327 368.647 38.555C368.793 37.6773 368.884 36.703 368.839 35.6913C368.797 34.6842 368.618 33.6157 368.284 32.5646C367.951 31.5136 367.461 30.4826 366.83 29.571C366.187 28.6323 365.369 27.7868 364.472 27.0869C363.575 26.387 362.601 25.8349 361.634 25.4437C360.674 25.0494 359.698 24.8055 358.796 24.6502C357.893 24.4949 357.064 24.4276 356.358 24.3759C355.651 24.324 355.064 24.2863 354.625 24.195C354.185 24.1037 353.893 23.957 353.779 23.7196L353.78 23.72Z" fill="#4B4343" fill-opacity="0.9999"/>
<path d="M201.75 13.82C201.602 13.6611 201.451 13.5063 201.296 13.356C200.181 12.2757 198.916 11.4401 197.633 10.8477C196.348 10.2552 195.043 9.90562 193.822 9.75355C192.572 9.59944 191.421 9.64973 190.427 9.80726C189.433 9.96483 188.596 10.2285 187.939 10.5082C187.283 10.7879 186.804 11.0824 186.504 11.3252C186.203 11.568 186.079 11.7581 186.129 11.867C186.184 11.9757 186.402 11.9974 186.767 11.9664C187.134 11.9355 187.646 11.8533 188.287 11.7791C188.928 11.7049 189.699 11.6393 190.572 11.6505C191.444 11.6615 192.419 11.7501 193.441 11.984C194.441 12.2121 195.491 12.5827 196.52 13.1224C197.549 13.6622 198.557 14.3708 199.45 15.2487C199.574 15.3705 199.697 15.4955 199.817 15.6239C200.665 16.5328 201.347 17.5509 201.863 18.5896C202.377 19.6284 202.725 20.6873 202.929 21.6989C203.151 22.7935 203.209 23.8396 203.18 24.7741C203.152 25.7087 203.038 26.5324 202.918 27.2155C202.794 27.8986 202.672 28.4427 202.61 28.8333C202.541 29.2239 202.555 29.4627 202.666 29.5227C202.776 29.5827 202.985 29.4592 203.264 29.1484C203.543 28.8377 203.886 28.3378 204.22 27.6439C204.553 26.95 204.876 26.0602 205.081 24.997C205.285 23.9337 205.372 22.696 205.229 21.3549C205.091 20.116 204.761 18.8009 204.189 17.5079C203.617 16.2149 202.805 14.9453 201.756 13.82L201.75 13.82Z" fill="#4B4343" fill-opacity="0.9999"/>
<path d="M155.28 19.65C155.083 19.7416 154.888 19.8376 154.698 19.938C153.325 20.6624 152.138 21.6038 151.175 22.6406C150.213 23.6774 149.476 24.8087 148.951 25.9234C148.417 27.0622 148.107 28.1731 147.947 29.1668C147.789 30.1605 147.779 31.0374 147.837 31.7484C147.906 32.4595 148.03 33.0056 148.168 33.3668C148.306 33.7281 148.448 33.9056 148.566 33.8914C148.69 33.8772 148.775 33.6731 148.859 33.3154C148.941 32.9577 149.024 32.4454 149.154 31.813C149.278 31.1806 149.46 30.4272 149.741 29.6011C150.022 28.775 150.41 27.8757 150.949 26.978C151.477 26.0984 152.156 25.2155 152.988 24.4049C153.821 23.5942 154.807 22.8564 155.92 22.28C156.074 22.1997 156.231 22.1226 156.39 22.0485C157.518 21.5246 158.697 21.1923 159.844 21.0254C160.993 20.8584 162.107 20.8568 163.131 20.9773C164.241 21.1062 165.253 21.3772 166.133 21.6948C167.011 22.0124 167.759 22.3765 168.371 22.7028C168.983 23.0291 169.462 23.3174 169.813 23.4977C170.166 23.678 170.394 23.7494 170.485 23.6638C170.581 23.5782 170.526 23.3397 170.315 22.979C170.106 22.6182 169.737 22.1355 169.182 21.6027C168.626 21.0699 167.88 20.4876 166.933 19.9624C165.986 19.4371 164.837 18.97 163.517 18.6901C162.299 18.433 160.944 18.3409 159.538 18.483C158.132 18.6251 156.671 19.0021 155.276 19.65H155.28Z" fill="#4B4343" fill-opacity="0.9999"/>
</svg>
