<svg width="512" height="512" viewBox="0 0 512 512" fill="none" xmlns="http://www.w3.org/2000/svg">
<g clip-path="url(#clip0)">
<path d="M379.015 469.036C261.385 536.95 110.973 496.647 43.059 379.017C-24.855 261.387 15.447 110.973 133.078 43.06C250.709 -24.853 401.12 15.45 469.034 133.079C536.948 250.708 496.645 401.122 379.015 469.036Z" fill="#50A6EA"/>
<path d="M273.404 182.451C271.634 182.866 268.204 183.737 266.721 184.927C264.869 186.412 267.763 188.343 266.706 189.189C264.881 190.649 263.558 193.297 259.651 193.047C251.489 192.526 238.945 181.968 231.486 177.977C243.51 165.603 224.487 163.749 217.073 164.369C207.472 165.172 190.857 164.306 182.184 169.189C176.165 172.578 168.075 186.644 163.226 192.231C156.476 200.007 149.684 206.758 145.286 216.068C129.151 250.221 153.985 289.43 193.015 284.844C203.851 283.571 215.218 276.758 224.822 285.748C231.899 292.373 228.154 298.608 230.03 306.334C231.654 313.02 239.057 317.133 241.619 323.273C246.532 335.043 243.421 342.404 239.914 353.26C235.312 367.505 247.213 384.418 251.845 398.165C254.177 405.087 260.974 424.471 267.647 427.504C278.139 432.274 294.584 417.969 300.849 410.275C305.747 404.26 304.148 398.15 307.438 392.518C310.999 386.423 315.505 384.593 318 376.735C320.689 368.265 323.483 366.158 329.162 359.977C338.305 350.029 336.885 344.212 333.23 332.416C325.635 307.91 353.222 296.454 365.648 278.465C378.624 259.68 353.542 265.942 343.712 259.517C333.605 252.911 329.188 240.356 324.318 229.948C319.446 219.539 315.415 203.897 307.348 195.347C301.133 188.764 282.229 185.71 273.404 182.451Z" fill="#A5DC69"/>
<path d="M400.356 346.844C396.435 360.058 392.515 373.272 388.594 386.486C385.853 395.724 376.162 425.944 362.566 406.587C357.398 399.231 361.601 389.592 364.484 382.823C368.121 374.283 363.206 369.983 365.742 361.898C368.65 352.631 380.614 352.314 386.275 345.796C390.223 341.252 392.658 334.027 395.543 328.707C397.149 334.754 398.753 340.798 400.356 346.844Z" fill="#A5DC69"/>
<path d="M469.034 133.079C426.674 59.71 352.218 16.429 273.641 10.721L241.479 51.065L172.548 75.231L154.056 120.059L182.581 160.018L185.613 151.57C190.676 137.465 204.047 128.058 219.032 128.058H266.045L320.085 147.048L338.698 164.816V176.102L364.575 225.669L372.11 222.89C388.382 216.89 403.157 207.432 415.421 195.169L409.174 185.797C407.187 182.817 409.324 178.826 412.905 178.826H427.985C432.401 178.826 436.595 180.76 439.463 184.118L451.782 198.541C452.956 199.915 453.873 201.489 454.491 203.187L468.085 240.57L474.556 234.099C478.636 230.018 480.702 224.459 480.798 218.689C480.875 214.05 482.888 209.649 486.357 206.555L491.313 202.135C492.559 201.024 493.949 200.121 495.429 199.438C490.042 176.703 481.317 154.354 469.034 133.079Z" fill="#A5DC69"/>
<path d="M101.107 142.686L112.87 130.081C121.447 120.89 123.877 107.54 119.087 95.916C114.023 83.626 102.92 75.658 90.63 74.01C47.19 113.408 20.181 166.377 12.411 222.484C21.595 230.512 31.206 239.106 31.151 239.863C31.045 241.312 65.56 235.525 65.56 235.525L47.792 209.46L73.309 191.215L101.107 142.686Z" fill="#A5DC69"/>
<path d="M125.025 387.739C136.113 384.137 142.181 372.228 138.579 361.141L135.412 351.392C134.028 347.133 134.035 342.545 135.431 338.29C139.388 326.228 131.88 313.428 119.422 310.993L94.569 306.136L49.17 271.619L11.637 283.812C15.323 316.407 25.61 348.793 43.058 379.016C59.196 406.967 79.998 430.541 103.904 449.346L115.088 390.967L125.025 387.739Z" fill="#A5DC69"/>
</g>
<defs>
<clipPath id="clip0">
<rect width="512" height="512" fill="white"/>
</clipPath>
</defs>
</svg>
