<?xml version="1.0"?>
<svg xmlns="http://www.w3.org/2000/svg" id="Layer_1" data-name="Layer 1" viewBox="0 0 512 512" width="512" height="512"><path d="M262.617,98.463a5.974,5.974,0,0,0,3.588-1.195l16.288-12.179a6,6,0,1,0-7.186-9.61L259.019,87.658a6,6,0,0,0,3.6,10.8Z"/><path d="M214.323,134.573a5.97,5.97,0,0,0,3.588-1.2l23.078-17.256a6,6,0,1,0-7.186-9.61l-23.078,17.256a6,6,0,0,0,3.6,10.805Z"/><path d="M318.09,377.5l-96.831,72.4a127.75,127.75,0,0,1-153-204.625L190.994,153.5a6,6,0,0,0-7.186-9.61L61.072,235.666C-.643,281.811-13.309,369.561,32.836,431.275a139.881,139.881,0,0,0,195.609,28.237l96.831-72.4a6,6,0,1,0-7.186-9.61Z"/><path d="M360.744,360.589a6,6,0,1,0-7.186-9.61L340.5,360.746a6,6,0,1,0,7.186,9.61Z"/><path d="M388.092,325.157l-13.275,9.926a6,6,0,1,0,7.186,9.61l13.275-9.925a6,6,0,0,0-7.186-9.611Z"/><path d="M435.494,289.714l-13.182,9.856a6,6,0,1,0,7.186,9.611l13.182-9.857a6,6,0,1,0-7.186-9.61Z"/><path d="M387.687,70.905a5.976,5.976,0,0,0,3.779-1.342L414.1,51.182a6,6,0,0,0-7.565-9.316L383.9,60.248a6,6,0,0,0,3.786,10.657Z"/><path d="M315.341,129.66a5.976,5.976,0,0,0,3.778-1.343L360.274,94.9a6,6,0,0,0-7.565-9.315L311.554,119a6,6,0,0,0,3.787,10.658Z"/><path d="M249.88,182.821a5.976,5.976,0,0,0,3.779-1.342L283.437,157.3a6,6,0,0,0-7.565-9.315l-29.778,24.183a6,6,0,0,0,3.786,10.657Z"/><path d="M208.124,216.732a5.976,5.976,0,0,0,3.779-1.342l18.26-14.829a6,6,0,0,0-7.565-9.315l-18.26,14.829a6,6,0,0,0,3.786,10.657Z"/><path d="M491.01,143.645,462.664,167.5a6,6,0,0,0,7.726,9.182l28.346-23.852a6,6,0,1,0-7.726-9.181Z"/><path d="M442.815,192.04a6,6,0,0,0-8.454-.728L364.622,250a6,6,0,0,0,7.726,9.181l69.739-58.682A6,6,0,0,0,442.815,192.04Z"/><path d="M293.9,323.345a5.974,5.974,0,0,0,3.86-1.409L341.1,285.474a6,6,0,0,0-7.726-9.182l-43.332,36.462a6,6,0,0,0,3.866,10.591Z"/><path d="M497.3,60.185,413.13,126.208a6,6,0,1,0,7.407,9.441L504.7,69.626a6,6,0,1,0-7.406-9.441Z"/><path d="M363.764,172.557a6,6,0,0,0,8.424,1.018l13.122-10.293a6,6,0,0,0-7.406-9.442l-13.122,10.293A6,6,0,0,0,363.764,172.557Z"/><path d="M296.356,231.438a5.971,5.971,0,0,0,3.7-1.28L336.4,201.65a6,6,0,1,0-7.406-9.442l-36.343,28.509a6,6,0,0,0,3.707,10.721Z"/><circle cx="47.217" cy="179.783" r="11.326"/><path d="M75.978,168.74a8.131,8.131,0,1,0-8.13-8.131A8.141,8.141,0,0,0,75.978,168.74Z"/><path d="M357.2,402.805a11.326,11.326,0,1,0,11.326,11.326A11.338,11.338,0,0,0,357.2,402.805Z"/><circle cx="384.891" cy="396.022" r="7.065"/><path d="M332.7,59.022a9.2,9.2,0,1,0-9.2-9.195A9.206,9.206,0,0,0,332.7,59.022Z"/><path d="M360.391,38.783a7.065,7.065,0,1,0-7.065-7.065A7.073,7.073,0,0,0,360.391,38.783Z"/><path d="M136.263,242.782A54.733,54.733,0,0,1,99.1,257.57,30.952,30.952,0,0,0,77.452,266.5,142.581,142.581,0,0,0,45.728,313.4a22.156,22.156,0,0,0-1.634,6.664l-2.607,30.6a63.116,63.116,0,0,0,12.861,43.9l3.679,4.789,4.191,5.78,16.134,23.6A58.331,58.331,0,0,0,126.68,454.32a59.84,59.84,0,0,0,8.169-.562q.286-.041.566-.106l.136-.034c.111-.028.221-.06.33-.095L143.765,451c6.51-2.085,11.653-3.946,16.191-5.589,12.744-4.614,19.14-6.931,34.337-6.032a24.114,24.114,0,0,0,19.5-8.094h0a42.417,42.417,0,0,1,15.884-11.113l5.567-2.214a54.2,54.2,0,0,0,26.61-22.766l7.376-12.474a31.927,31.927,0,0,0-1.521-35.358l-13.305-18.282-16.025-46.293-.227-2.109a60.755,60.755,0,0,0-101.893-37.893Zm57.283-1.74a48.934,48.934,0,0,1,32.679,40.916l.3,2.8a6.312,6.312,0,0,0,.3,1.322l16.529,47.749a6.234,6.234,0,0,0,.837,1.6L258.01,354.42a19.969,19.969,0,0,1,.923,22.142l-7.405,12.521a42.2,42.2,0,0,1-20.716,17.724l-5.568,2.215a54.47,54.47,0,0,0-20.4,14.273h0A12.163,12.163,0,0,1,195,427.4c-17.666-1.042-25.744,1.882-39.13,6.727-4.438,1.607-9.469,3.428-15.765,5.444l-7.387,2.364a46.438,46.438,0,0,1-44.46-19.979L72.077,398.285l-.095-.136-4.289-5.915-.1-.134-3.728-4.853a51.135,51.135,0,0,1-10.421-35.569l2.607-30.6a10.121,10.121,0,0,1,.749-3.053,130.632,130.632,0,0,1,29.067-42.966,19.013,19.013,0,0,1,13.3-5.488,66.7,66.7,0,0,0,45.294-18.021,48.669,48.669,0,0,1,49.089-10.507Z"/><path d="M199.053,304.534a22.9,22.9,0,0,0,11.866-3.308,6,6,0,0,0-6.2-10.274,11.036,11.036,0,0,1-11.406-18.9,6,6,0,1,0-6.2-10.274,23.032,23.032,0,0,0,11.942,42.752Z"/><path d="M206.126,361.877a23.037,23.037,0,0,0,23,22.148c.3,0,.606-.006.91-.018a6,6,0,1,0-.463-11.991,11.036,11.036,0,0,1-.851-22.055,6,6,0,1,0-.462-11.991,23.036,23.036,0,0,0-22.131,23.907Z"/><path d="M144.056,300.652a6,6,0,1,0-11.957-1.019,5.357,5.357,0,0,1-10.675-.909,6,6,0,1,0-11.957-1.018,17.357,17.357,0,0,0,15.821,18.767q.754.065,1.5.064a17.358,17.358,0,0,0,17.264-15.885Z"/><path d="M132.607,349.826a17.358,17.358,0,0,0,11.864,21.489,6,6,0,1,0,3.327-11.529,5.357,5.357,0,0,1,2.971-10.294,6,6,0,0,0,3.328-11.53,17.359,17.359,0,0,0-21.49,11.864Z"/><path d="M92.965,352.935a17.372,17.372,0,0,0,15.114-8.768,6,6,0,0,0-10.429-5.936,5.357,5.357,0,1,1-9.311-5.3,6,6,0,1,0-10.429-5.937,17.352,17.352,0,0,0,15.055,25.941Z"/><path d="M112.618,390.135a6,6,0,0,0-8.182,2.246,5.357,5.357,0,1,1-9.312-5.3A6,6,0,1,0,84.7,381.144a17.357,17.357,0,0,0,30.169,17.173A6,6,0,0,0,112.618,390.135Z"/><path d="M169.619,412.365a17.439,17.439,0,0,0,4.737.659,17.383,17.383,0,0,0,16.68-12.653,6,6,0,1,0-11.55-3.257,5.357,5.357,0,0,1-10.312-2.909,6,6,0,1,0-11.549-3.257A17.377,17.377,0,0,0,169.619,412.365Z"/></svg>
