<svg width="411" height="410" viewBox="0 0 411 410" fill="none" xmlns="http://www.w3.org/2000/svg">
<path d="M404.58 6.00001C404.592 29.2995 401.939 52.524 396.67 75.22L396.33 75.14C369.659 62.3968 348.121 40.9539 335.26 14.34L335.11 14.03C357.879 8.68323 381.191 5.98865 404.58 6.00001V6.00001Z" fill="#ED6337"/>
<path d="M135.03 256.78L109.9 231.65C111.38 226.16 113.017 220.73 114.81 215.36C125.437 183.409 141.296 153.445 161.74 126.69H161.75C204.762 70.211 266.03 30.3958 335.11 14.03L335.26 14.34C348.121 40.9539 369.659 62.3968 396.33 75.14L396.67 75.22C386.666 118.122 367.433 158.328 340.31 193.04C323.972 213.982 304.972 232.704 283.79 248.73C257.234 268.854 227.543 284.463 195.91 294.93C190.15 296.84 184.31 298.577 178.39 300.14L155.31 277.06L135.03 256.78Z" fill="#F4EEE0"/>
<path d="M288.52 293.56C291.842 296.881 294.478 300.825 296.276 305.165C298.074 309.505 299 314.157 299 318.855C299 323.553 298.074 328.205 296.276 332.545C294.478 336.885 291.842 340.829 288.52 344.15L229.96 403.57L196 369.19C186.237 359.304 180.755 345.973 180.738 332.078C180.721 318.184 186.171 304.84 195.91 294.93C227.543 284.463 257.234 268.854 283.79 248.73L283.82 248.77C279.354 255.644 277.384 263.844 278.239 271.997C279.095 280.15 282.724 287.762 288.52 293.56V293.56Z" fill="#475673"/>
<path d="M155.31 277.06L142.54 328.71L81.88 268.04L135.03 256.78L155.31 277.06Z" fill="#ED6337"/>
<path d="M116.96 122C122.755 127.797 130.367 131.426 138.519 132.28C146.671 133.134 154.869 131.16 161.74 126.69C141.296 153.445 125.437 183.409 114.81 215.36C104.84 224.768 91.6073 229.938 77.9003 229.781C64.1934 229.624 51.0824 224.153 41.33 214.52L6.94 180.56L66.37 122C69.6914 118.678 73.6348 116.042 77.975 114.244C82.3152 112.446 86.9671 111.52 91.665 111.52C96.3629 111.52 101.015 112.446 105.355 114.244C109.695 116.042 113.639 118.678 116.96 122V122Z" fill="#475673"/>
<path d="M263.745 184.707C284.658 184.707 301.612 167.753 301.612 146.84C301.612 125.927 284.658 108.973 263.745 108.973C242.832 108.973 225.878 125.927 225.878 146.84C225.878 167.753 242.832 184.707 263.745 184.707Z" fill="#50A6EA"/>
<path d="M335.26 14.34L335.11 14.03C266.03 30.3958 204.762 70.211 161.75 126.69H161.74C141.296 153.445 125.437 183.409 114.81 215.36C113.02 220.73 111.383 226.16 109.9 231.65L129.9 251.65C131.38 246.16 133.017 240.73 134.81 235.36C145.437 203.409 161.296 173.445 181.74 146.69H181.75C223.311 92.1325 281.945 53.0639 348.3 35.716C343.276 29.0265 338.909 21.868 335.26 14.34V14.34Z" fill="#DAD7D0"/>
<path d="M288.377 252.848C326.357 223.87 357.141 186.523 378.336 143.71C399.531 100.897 410.566 53.7722 410.582 6.00001C410.582 4.40871 409.95 2.88258 408.825 1.75737C407.699 0.632148 406.173 6.75376e-06 404.582 6.75376e-06C335.518 -0.0144108 268.431 23.055 213.982 65.542C192.963 81.913 174.111 100.891 157.882 122.02C152.174 125.522 145.456 127.005 138.805 126.231C132.153 125.458 125.955 122.472 121.203 117.754C113.375 109.926 102.759 105.526 91.6882 105.52C80.6175 105.514 69.9973 109.904 62.161 117.724L2.73202 176.283C2.16632 176.841 1.71714 177.506 1.41056 178.239C1.10398 178.973 0.946106 179.759 0.946106 180.554C0.946106 181.349 1.10398 182.135 1.41056 182.869C1.71714 183.602 2.16632 184.267 2.73202 184.825L37.116 218.785C45.7947 227.309 56.8925 232.948 68.8946 234.931C80.8967 236.914 93.2184 235.145 104.178 229.866C104.158 229.94 104.136 230.012 104.116 230.085C103.841 231.104 103.839 232.177 104.111 233.197C104.384 234.216 104.92 235.146 105.666 235.892L122.971 253.2L80.633 262.173C79.5763 262.397 78.5995 262.902 77.8059 263.634C77.0122 264.367 76.4311 265.301 76.1239 266.336C75.8167 267.372 75.7947 268.471 76.0603 269.518C76.3259 270.565 76.8693 271.521 77.633 272.285L80.5 276L86 281.5L108.5 304.38C108.734 304.38 108.266 304.38 108.5 304.38L130.496 326.5L138.3 332.948C139.052 333.699 139.989 334.238 141.017 334.508C142.045 334.778 143.126 334.77 144.15 334.485C145.174 334.201 146.104 333.649 146.845 332.887C147.585 332.125 148.11 331.18 148.366 330.148L158.588 288.817L174.15 304.38C174.893 305.122 175.817 305.657 176.831 305.93C177.845 306.203 178.913 306.206 179.928 305.938C180.287 305.838 180.642 305.738 181.001 305.638C175.515 316.646 173.601 329.091 175.525 341.239C177.45 353.386 183.117 364.631 191.736 373.404L225.693 408C226.799 409.201 228.332 409.919 229.962 410C231.593 409.92 233.127 409.201 234.232 408L292.762 348.5C300.584 340.65 304.976 330.019 304.976 318.937C304.976 307.855 300.584 297.224 292.762 289.374C288.073 284.641 285.095 278.479 284.301 271.864C283.507 265.248 284.941 258.557 288.377 252.848ZM398.521 12.061C398.156 30.3094 396.116 48.4857 392.427 66.361C372.14 55.1179 355.391 38.4394 344.062 18.2C361.987 14.4817 380.218 12.4267 398.521 12.061ZM45.545 210.247L15.487 180.561L70.61 126.24C76.193 120.658 83.7649 117.522 91.66 117.522C99.5551 117.522 107.127 120.658 112.71 126.24C117.068 130.573 122.326 133.895 128.111 135.97C133.897 138.045 140.067 138.822 146.186 138.246C130.789 161.09 118.495 185.877 109.626 211.959C100.708 219.83 89.139 224.03 77.2486 223.712C65.3583 223.394 54.0299 218.583 45.545 210.247ZM139.268 316.947L93.939 271.619L133.092 263.319L148.676 278.9L139.268 316.947ZM180.177 293.436L116.62 229.879C117.687 226.106 118.831 222.356 120.053 218.631C120.089 218.595 120.126 218.563 120.162 218.531L120.105 218.474C134.553 174.728 158.837 134.877 191.091 101.981C223.345 69.0859 262.71 44.0219 306.163 28.715C314.646 25.7397 323.231 23.1637 331.918 20.987C344.868 45.5791 365.007 65.6393 389.65 78.493C363.984 180.911 285.068 264.385 180.177 293.436ZM284.248 339.936L229.957 395.03L200.271 364.973C191.812 356.364 186.987 344.832 186.795 332.764C186.603 320.697 191.058 309.017 199.239 300.143C225.057 291.485 249.615 279.445 272.271 264.337C271.697 270.455 272.475 276.624 274.55 282.408C276.625 288.191 279.946 293.448 284.278 297.806C289.856 303.4 292.986 310.979 292.98 318.878C292.974 326.778 289.834 334.352 284.248 339.938V339.936Z" fill="#6F1F46"/>
<path d="M263.744 102.968C256.533 102.972 249.435 104.754 243.077 108.156C236.719 111.557 231.298 116.474 227.294 122.471C223.289 128.468 220.825 135.359 220.119 142.535C219.413 149.711 220.488 156.951 223.247 163.613C226.007 170.274 230.366 176.153 235.939 180.728C241.513 185.304 248.128 188.434 255.2 189.843C262.272 191.252 269.582 190.895 276.483 188.805C283.384 186.714 289.663 182.955 294.765 177.859C300.901 171.724 305.079 163.907 306.772 155.396C308.464 146.886 307.595 138.065 304.275 130.049C300.954 122.033 295.331 115.181 288.117 110.361C280.902 105.54 272.42 102.968 263.743 102.968H263.744ZM286.28 169.374C281.823 173.831 276.144 176.867 269.962 178.097C263.779 179.327 257.371 178.696 251.547 176.284C245.723 173.871 240.746 169.786 237.243 164.545C233.741 159.304 231.872 153.142 231.872 146.839C231.872 140.535 233.741 134.373 237.243 129.132C240.746 123.891 245.723 119.806 251.547 117.393C257.371 114.981 263.779 114.35 269.962 115.58C276.144 116.81 281.823 119.846 286.28 124.303C292.248 130.284 295.6 138.389 295.6 146.839C295.6 155.288 292.248 163.393 286.28 169.374V169.374Z" fill="#6F1F46"/>
</svg>
