<svg width="512" height="512" viewBox="0 0 512 512" fill="none" xmlns="http://www.w3.org/2000/svg">
<path d="M477.58 11C477.592 34.2995 474.939 57.524 469.67 80.22L469.33 80.14C442.659 67.3968 421.121 45.9539 408.26 19.34L408.11 19.03C430.879 13.6832 454.191 10.9887 477.58 11V11Z" fill="#ED6337"/>
<path d="M208.03 261.78L182.9 236.65C184.38 231.16 186.017 225.73 187.81 220.36C198.437 188.409 214.296 158.445 234.74 131.69H234.75C277.762 75.211 339.03 35.3958 408.11 19.03L408.26 19.34C421.121 45.9539 442.659 67.3968 469.33 80.14L469.67 80.22C459.666 123.122 440.433 163.328 413.31 198.04C396.972 218.982 377.972 237.704 356.79 253.73C330.234 273.854 300.543 289.463 268.91 299.93C263.15 301.84 257.31 303.577 251.39 305.14L228.31 282.06L208.03 261.78Z" fill="#F4EEE0"/>
<path d="M361.52 298.56C364.842 301.881 367.478 305.825 369.276 310.165C371.074 314.505 372 319.157 372 323.855C372 328.553 371.074 333.205 369.276 337.545C367.478 341.885 364.842 345.829 361.52 349.15L302.96 408.57L269 374.19C259.237 364.304 253.755 350.973 253.738 337.078C253.721 323.184 259.171 309.84 268.91 299.93C300.543 289.463 330.234 273.854 356.79 253.73L356.82 253.77C352.354 260.644 350.384 268.844 351.239 276.997C352.095 285.15 355.724 292.762 361.52 298.56V298.56Z" fill="#475673"/>
<path d="M228.31 282.06L215.54 333.71L154.88 273.04L208.03 261.78L228.31 282.06Z" fill="#ED6337"/>
<path d="M189.96 127C195.755 132.797 203.367 136.426 211.519 137.28C219.671 138.134 227.869 136.16 234.74 131.69C214.296 158.445 198.437 188.409 187.81 220.36C177.84 229.768 164.607 234.938 150.9 234.781C137.193 234.624 124.082 229.153 114.33 219.52L79.94 185.56L139.37 127C142.691 123.678 146.635 121.042 150.975 119.244C155.315 117.446 159.967 116.52 164.665 116.52C169.363 116.52 174.015 117.446 178.355 119.244C182.695 121.042 186.639 123.678 189.96 127V127Z" fill="#475673"/>
<path d="M183.74 327.11C183.747 332.437 181.802 337.582 178.274 341.573C174.746 345.564 169.878 348.124 164.59 348.77L136.8 352.22L140.24 324.42C140.924 318.905 143.686 313.858 147.962 310.308C152.238 306.758 157.707 304.973 163.255 305.316C168.802 305.659 174.009 308.104 177.816 312.154C181.622 316.204 183.741 321.552 183.74 327.11V327.11Z" fill="#FAD145"/>
<path d="M336.745 189.707C357.658 189.707 374.612 172.753 374.612 151.84C374.612 130.927 357.658 113.973 336.745 113.973C315.832 113.973 298.878 130.927 298.878 151.84C298.878 172.753 315.832 189.707 336.745 189.707Z" fill="#50A6EA"/>
<path d="M408.26 19.34L408.11 19.03C339.03 35.3958 277.762 75.211 234.75 131.69H234.74C214.296 158.445 198.437 188.409 187.81 220.36C186.02 225.73 184.383 231.16 182.9 236.65L202.9 256.65C204.38 251.16 206.017 245.73 207.81 240.36C218.437 208.409 234.296 178.445 254.74 151.69H254.75C296.311 97.1325 354.945 58.0639 421.3 40.716C416.276 34.0265 411.909 26.868 408.26 19.34V19.34Z" fill="#DAD7D0"/>
<path d="M361.377 257.848C399.357 228.87 430.141 191.523 451.336 148.71C472.531 105.897 483.566 58.7722 483.582 11C483.582 9.40871 482.95 7.88258 481.825 6.75737C480.699 5.63215 479.173 5.00001 477.582 5.00001C408.518 4.98559 341.431 28.055 286.982 70.542C265.963 86.913 247.111 105.891 230.882 127.02C225.174 130.522 218.456 132.005 211.805 131.231C205.153 130.458 198.955 127.472 194.203 122.754C186.375 114.926 175.759 110.526 164.688 110.52C153.617 110.514 142.997 114.904 135.161 122.724L75.732 181.283C75.1663 181.841 74.7171 182.506 74.4106 183.239C74.104 183.973 73.9461 184.759 73.9461 185.554C73.9461 186.349 74.104 187.135 74.4106 187.869C74.7171 188.602 75.1663 189.267 75.732 189.825L110.116 223.785C118.795 232.309 129.892 237.948 141.895 239.931C153.897 241.914 166.218 240.145 177.178 234.866C177.158 234.94 177.136 235.012 177.116 235.085C176.841 236.104 176.839 237.177 177.111 238.197C177.384 239.216 177.92 240.146 178.666 240.892L195.971 258.2L153.633 267.173C152.576 267.397 151.6 267.902 150.806 268.634C150.012 269.367 149.431 270.301 149.124 271.336C148.817 272.372 148.795 273.471 149.06 274.518C149.326 275.565 149.869 276.521 150.633 277.285L171.933 298.585C167.126 295.709 161.895 293.609 156.433 292.364C154.695 291.971 152.953 291.664 151.27 291.454C149.164 291.186 147.044 291.044 144.921 291.029C137.899 290.969 130.935 292.314 124.44 294.984C117.945 297.655 112.049 301.597 107.1 306.579C101.989 311.606 97.9318 317.601 95.1653 324.214C92.3988 330.827 90.9787 337.925 90.988 345.094C90.9875 346.659 91.5987 348.163 92.6913 349.284C93.7839 350.405 95.2712 351.054 96.836 351.094L101.361 351.209C92.6039 363.331 88.9258 378.394 91.11 393.188C91.3817 394.549 92.1178 395.772 93.1922 396.65C94.2666 397.528 95.6126 398.005 97 398H113.392C114.983 398 116.509 397.368 117.635 396.243C118.76 395.117 119.392 393.591 119.392 392C119.392 390.409 118.76 388.883 117.635 387.757C116.509 386.632 114.983 386 113.392 386H102.462C102.292 378 104.048 362.842 118.577 350.021C119.481 349.224 120.123 348.174 120.42 347.007C120.718 345.839 120.656 344.609 120.244 343.477C119.832 342.346 119.088 341.364 118.11 340.661C117.132 339.959 115.964 339.567 114.76 339.538L103.4 339.252C104.684 330.083 108.957 321.593 115.557 315.1C119.353 311.28 123.865 308.248 128.835 306.176C133.806 304.105 139.136 303.035 144.521 303.029H144.834C145.789 303.035 146.747 303.086 147.704 303.159C144.04 305.319 140.923 308.294 138.595 311.854C136.267 315.414 134.791 319.462 134.282 323.685L130.841 351.485C130.737 352.329 130.813 353.185 131.064 353.997C131.316 354.809 131.737 355.558 132.3 356.195C132.863 356.832 133.555 357.342 134.33 357.692C135.105 358.041 135.945 358.222 136.795 358.222C137.041 358.222 137.287 358.207 137.532 358.177L165.332 354.735C169.558 354.214 173.607 352.729 177.167 350.394C180.727 348.06 183.703 344.937 185.864 341.269C185.95 342.35 186.009 343.44 186.011 344.538C186.025 349.991 184.958 355.393 182.871 360.431C180.785 365.469 177.72 370.043 173.854 373.889C173.284 374.443 172.831 375.105 172.519 375.836C172.207 376.567 172.044 377.353 172.039 378.148C172.033 378.943 172.186 379.731 172.487 380.466C172.789 381.201 173.234 381.869 173.796 382.431C174.358 382.993 175.026 383.438 175.761 383.74C176.496 384.042 177.284 384.194 178.079 384.189C178.874 384.184 179.659 384.02 180.391 383.709C181.122 383.397 181.784 382.944 182.338 382.374C188.103 376.614 192.474 369.613 195.118 361.904C197.762 354.196 198.608 345.985 197.592 337.9C197.392 336.227 197.1 334.526 196.726 332.842C195.488 327.295 193.37 321.981 190.453 317.103L211.3 337.948C212.052 338.699 212.989 339.238 214.017 339.508C215.045 339.778 216.126 339.77 217.15 339.485C218.174 339.201 219.104 338.649 219.845 337.887C220.585 337.125 221.11 336.18 221.366 335.148L231.588 293.817L247.15 309.38C247.893 310.122 248.817 310.657 249.831 310.93C250.845 311.203 251.913 311.206 252.928 310.938C253.287 310.838 253.642 310.738 254.001 310.638C248.515 321.646 246.601 334.091 248.525 346.239C250.45 358.386 256.117 369.631 264.736 378.404L298.693 413C299.799 414.201 301.332 414.919 302.962 415C304.593 414.92 306.127 414.201 307.232 413L365.762 353.5C373.584 345.65 377.976 335.019 377.976 323.937C377.976 312.855 373.584 302.224 365.762 294.374C361.073 289.641 358.095 283.479 357.301 276.864C356.507 270.248 357.941 263.557 361.377 257.848V257.848ZM471.521 17.061C471.156 35.3094 469.116 53.4857 465.427 71.361C445.14 60.1179 428.391 43.4394 417.062 23.2C434.987 19.4817 453.218 17.4267 471.521 17.061V17.061ZM118.545 215.247L88.487 185.561L143.61 131.24C149.193 125.658 156.765 122.522 164.66 122.522C172.555 122.522 180.127 125.658 185.71 131.24C190.068 135.573 195.326 138.895 201.111 140.97C206.897 143.045 213.067 143.822 219.186 143.246C203.789 166.09 191.495 190.877 182.626 216.959C173.708 224.83 162.139 229.03 150.249 228.712C138.358 228.394 127.03 223.583 118.545 215.247V215.247ZM177.145 331.424C176.299 334.422 174.586 337.104 172.222 339.132C169.857 341.161 166.945 342.445 163.853 342.824L143.695 345.324L146.195 325.171C146.6 322.018 147.937 319.058 150.036 316.67C152.135 314.282 154.9 312.576 157.975 311.771C160.672 311.083 163.503 311.117 166.183 311.87C168.863 312.623 171.298 314.069 173.241 316.062C175.185 318.054 176.57 320.524 177.256 323.222C177.942 325.92 177.905 328.751 177.15 331.43L177.145 331.424ZM212.268 321.947L166.939 276.619L206.092 268.319L221.676 283.9L212.268 321.947ZM253.177 298.436L189.62 234.879C190.687 231.106 191.831 227.356 193.053 223.631C193.089 223.595 193.126 223.563 193.162 223.531L193.105 223.474C207.553 179.728 231.837 139.877 264.091 106.981C296.345 74.0859 335.71 49.0219 379.163 33.715C387.646 30.7397 396.231 28.1637 404.918 25.987C417.868 50.5791 438.007 70.6393 462.65 83.493C436.984 185.911 358.068 269.385 253.177 298.436V298.436ZM357.248 344.936L302.957 400.03L273.271 369.973C264.812 361.364 259.987 349.832 259.795 337.764C259.603 325.697 264.058 314.017 272.239 305.143C298.057 296.485 322.615 284.445 345.271 269.337C344.697 275.455 345.475 281.624 347.55 287.408C349.625 293.191 352.946 298.448 357.278 302.806C362.856 308.4 365.986 315.979 365.98 323.878C365.974 331.778 362.834 339.352 357.248 344.938V344.936Z" fill="#6F1F46"/>
<path d="M154.21 384.878C151.029 385.631 147.769 386.008 144.5 386H135.048C133.457 386 131.931 386.632 130.805 387.757C129.68 388.883 129.048 390.409 129.048 392C129.048 393.591 129.68 395.117 130.805 396.243C131.931 397.368 133.457 398 135.048 398H144.5C148.709 398.008 152.905 397.52 157 396.548C158.548 396.177 159.884 395.207 160.717 393.851C161.549 392.494 161.808 390.863 161.438 389.315C161.067 387.768 160.097 386.431 158.74 385.599C157.384 384.767 155.753 384.507 154.205 384.878H154.21Z" fill="#6F1F46"/>
<path d="M336.744 107.968C329.533 107.972 322.435 109.754 316.077 113.156C309.719 116.557 304.298 121.474 300.294 127.471C296.289 133.468 293.825 140.359 293.119 147.535C292.413 154.711 293.488 161.951 296.247 168.613C299.007 175.274 303.366 181.153 308.939 185.728C314.513 190.304 321.128 193.434 328.2 194.843C335.272 196.252 342.582 195.895 349.483 193.805C356.384 191.714 362.663 187.955 367.765 182.859C373.901 176.724 378.079 168.907 379.772 160.396C381.464 151.886 380.595 143.065 377.275 135.049C373.954 127.033 368.331 120.181 361.117 115.361C353.902 110.54 345.42 107.968 336.743 107.968H336.744ZM359.28 174.374C354.823 178.831 349.144 181.867 342.962 183.097C336.779 184.327 330.371 183.696 324.547 181.284C318.723 178.871 313.746 174.786 310.243 169.545C306.741 164.304 304.872 158.142 304.872 151.839C304.872 145.535 306.741 139.373 310.243 134.132C313.746 128.891 318.723 124.806 324.547 122.393C330.371 119.981 336.779 119.35 342.962 120.58C349.144 121.81 354.823 124.846 359.28 129.303C365.248 135.284 368.6 143.389 368.6 151.839C368.6 160.288 365.248 168.393 359.28 174.374V174.374Z" fill="#6F1F46"/>
</svg>
