<?xml version="1.0"?>
<svg xmlns="http://www.w3.org/2000/svg" width="512" height="512" viewBox="0 0 512 512"><path d="M472,120H408a24.032,24.032,0,0,0-24,24v48H352V144a8,8,0,0,0-8-8H328V120a8,8,0,0,0-8-8H301.19A71.91,71.91,0,0,0,328,56a8,8,0,0,0-8-8H264V16a8,8,0,0,0-16,0V48H192a8,8,0,0,0-8,8,71.91,71.91,0,0,0,26.81,56H192a8,8,0,0,0-8,8v16H168a8,8,0,0,0-8,8v48H128V144a24.032,24.032,0,0,0-24-24H40a24.032,24.032,0,0,0-24,24V320a24.032,24.032,0,0,0,24,24h64a24.032,24.032,0,0,0,24-24V272h32v84a28.031,28.031,0,0,0,28,28h36v16h-8a8,8,0,0,0-8,8v48a48,48,0,0,0,96,0V408a8,8,0,0,0-8-8h-8V384h36a28.031,28.031,0,0,0,28-28V272h32v48a24.032,24.032,0,0,0,24,24h64a24.032,24.032,0,0,0,24-24V144A24.032,24.032,0,0,0,472,120ZM64,328H40a8.011,8.011,0,0,1-8-8V289H64Zm0-55H32V240H64Zm0-49H32V192H64Zm0-48H32V144a8.011,8.011,0,0,1,8-8H64Zm48,144a8.011,8.011,0,0,1-8,8H80V289h32Zm0-47H80V240h32Zm0-49H80V192h32Zm0-48H80V136h24a8.011,8.011,0,0,1,8,8Zm48,80H128V208h32ZM200.57,64H311.43a56.005,56.005,0,0,1-110.86,0ZM200,128H312v8H200Zm88,328a32,32,0,0,1-64,0V440h64Zm0-32H224v-8h64Zm-48-24V384h32v16Zm96-44a12.01,12.01,0,0,1-12,12H188a12.01,12.01,0,0,1-12-12V280H336Zm0-92H176V248H336Zm0-32H176V152H336Zm48,24H352V208h32Zm48,72H408a8.011,8.011,0,0,1-8-8V289h32Zm0-55H400V240h32Zm0-49H400V192h32Zm0-48H400V144a8.011,8.011,0,0,1,8-8h24Zm48,144a8.011,8.011,0,0,1-8,8H448V289h32Zm0-47H448V240h32Zm0-49H448V192h32Zm0-48H448V136h24a8.011,8.011,0,0,1,8,8Z"/></svg>
