<svg width="512" height="106" viewBox="0 0 512 106" fill="none" xmlns="http://www.w3.org/2000/svg">
<path d="M512 70.6897C512 90.191 496.191 106 476.69 106H35.3104C21.6123 106.005 9.1472 98.0873 3.32962 85.686C-2.48796 73.2846 -0.608224 58.6376 8.15232 48.1071C16.9129 37.5767 30.9733 33.0631 44.2262 36.5269C44.153 36.149 44.1234 35.764 44.138 35.3793C44.1505 19.4035 54.888 5.42645 70.3209 1.29684C85.7537 -2.83276 102.037 3.91402 110.026 17.7486C118.015 31.5832 115.721 49.0585 104.43 60.3614L104.872 60.8028C111.28 54.3615 120.551 51.6702 129.412 53.6791C138.273 55.6881 145.477 62.1146 148.48 70.6897H176.552C200.928 70.6897 220.69 50.9284 220.69 26.5517V8.89655H291.31V26.5517C291.31 50.9284 311.072 70.6897 335.448 70.6897H363.52C366.68 61.702 374.437 55.1136 383.817 53.4496C393.198 51.7856 402.747 55.3041 408.806 62.6566L409.423 62.0386C397.109 51.3643 393.7 33.6491 401.172 19.1665C408.644 4.68396 425.058 -2.80359 440.893 1.0461C456.728 4.8958 467.872 19.0827 467.862 35.3793C467.877 35.764 467.847 36.149 467.774 36.5269C478.356 33.7654 489.62 36.0633 498.275 42.7489C506.93 49.4345 511.999 59.7532 512 70.6897Z" fill="#95A5A5"/>
</svg>
